<?xml version="1.0" encoding="utf-8"?>
<svg version="1.1" xmlns="http://www.w3.org/2000/svg" xmlns:xlink="http://www.w3.org/1999/xlink" x="0px"
	 y="0px" width="315.45px" height="137.967px" viewBox="0 0 315.45 137.967" enable-background="new 0 0 315.45 137.967"
	 xml:space="preserve">
<rect x="-140.657" y="180.322" fill="#262626" width="596.137" height="205.102"/>
<g>
	<path d="M295.135-286.869c-6.052-0.721-11.237-1.945-11.237-6.339c0-3.746,3.386-6.7,10.444-6.7c5.476,0,10.229,2.738,11.959,5.619
		l7.563-3.89c-3.818-7.78-11.959-10.013-19.811-10.013c-9.292,0.072-19.521,4.323-19.521,14.695c0,11.311,9.509,14.048,19.81,15.272
		c6.699,0.721,11.67,2.666,11.67,7.42c0,5.475-5.619,7.564-11.598,7.564c-6.124,0-11.958-2.45-14.191-7.997l-7.924,4.106
		c3.746,9.221,11.67,12.391,21.971,12.391c11.238,0,21.18-4.826,21.18-16.064C315.45-282.835,305.652-285.572,295.135-286.869z"/>
	<path d="M257.454-301.557l-21.818-12.597c-2.237-1.292-4.994-1.292-7.231,0l-21.819,12.597c-2.237,1.292-3.615,3.679-3.615,6.263
		v25.194c0,2.583,1.378,4.971,3.615,6.262l21.819,12.597c2.237,1.292,4.994,1.292,7.231,0l21.818-12.597
		c2.237-1.292,3.616-3.679,3.616-6.262v-25.194C261.07-297.877,259.691-300.265,257.454-301.557z M205.101-287.494
		c0.059-5.616,4.072-12.063,8.965-14.398c1.939-0.926,3.72-1.056,5.165-0.54c0.427,1.268,1.983,7.063-2.784,13.015
		c-5.473,6.832-7.651,7.507-9.55,7.255C205.752-283.329,205.077-285.148,205.101-287.494z M206.966-282.087
		c0.866,0.377,4.844,1.5,10.318-6.408c5.335-7.707,2.872-12.648,2.071-13.89c2.132,0.829,3.498,3.105,3.463,6.431
		c-0.059,5.616-4.072,12.063-8.965,14.399C211.047-280.215,208.566-280.525,206.966-282.087z M214.595-279.84
		c5.803-2.691,10.506-10.235,10.506-16.851c0-2.043-0.451-3.756-1.242-5.072l0.864,0.341c1.895,1.597,3.109,3.937,3.454,6.714
		c0.538,4.333-1.174,8.814-4.168,11.966c-1.174,1.235-2.543,2.26-4.057,2.994c-0.551,0.267-1.115,0.509-1.701,0.693
		c-2.182,0.686-4.348,0.687-6.289,0.04C212.805-279.156,213.684-279.417,214.595-279.84z M212.867-274.638v-3.12
		c0.468,0.094,0.942,0.155,1.425,0.185c0.219,0.013,0.433,0.045,0.653,0.045c0.77,0,1.555-0.089,2.344-0.252
		c0.42-0.086,0.842-0.188,1.264-0.32c5.725-1.8,10.01-7.493,10.631-13.523c0.093-0.906,0.103-1.818,0.022-2.728
		c-0.015-0.16-0.017-0.32-0.036-0.479c-0.111-0.896-0.308-1.751-0.581-2.557c-0.396-1.167-0.953-2.232-1.662-3.165
		c-0.235-0.31-0.487-0.604-0.755-0.884l3.251-1.877c0.629-0.363,1.314-0.579,2.013-0.658l-0.276,21.44l-18.093,9.303
		C212.937-273.681,212.867-274.154,212.867-274.638z M248.575-270.14l-13.958,8.059c-1.607,0.928-3.588,0.928-5.194,0l-13.958-8.059
		c-0.588-0.339-1.091-0.786-1.495-1.303l17.992-9.251l18.081,9.281C249.642-270.908,249.15-270.472,248.575-270.14z
		 M251.171-274.638c0,0.498-0.076,0.983-0.211,1.448l-17.805-9.138l0.277-21.479c0.408,0.115,0.807,0.277,1.184,0.495l13.958,8.059
		c1.607,0.928,2.597,2.643,2.597,4.499V-274.638z"/>
	<path fill="#FFFFFF" d="M213.969-271.443c0.404,0.518,0.907,0.964,1.495,1.303l13.958,8.059c1.606,0.928,3.587,0.928,5.194,0
		l13.958-8.059c0.575-0.333,1.067-0.769,1.468-1.273l-18.081-9.281L213.969-271.443z"/>
	<path fill="#FFFFFF" d="M248.575-295.254l-13.958-8.059c-0.377-0.217-0.775-0.379-1.184-0.495l-0.277,21.479l17.805,9.138
		c0.135-0.465,0.211-0.951,0.211-1.448v-16.117C251.171-292.611,250.182-294.326,248.575-295.254z"/>
	<path fill="#FFFFFF" d="M218.251-279.054c0.586-0.185,1.15-0.426,1.701-0.693c1.514-0.734,2.883-1.759,4.057-2.994
		c2.994-3.151,4.706-7.633,4.168-11.966c-0.345-2.778-1.56-5.118-3.454-6.714l-0.864-0.341c0.791,1.316,1.242,3.029,1.242,5.072
		c0,6.615-4.703,14.16-10.506,16.851c-0.911,0.422-1.79,0.684-2.633,0.826C213.904-278.367,216.07-278.368,218.251-279.054z"/>
	<path fill="#FFFFFF" d="M231.435-303.971c-0.698,0.079-1.384,0.295-2.013,0.658l-3.251,1.877c0.268,0.28,0.52,0.574,0.755,0.884
		c0.709,0.933,1.267,1.998,1.662,3.165c0.273,0.806,0.47,1.66,0.581,2.557c0.02,0.159,0.021,0.319,0.036,0.479
		c0.08,0.909,0.07,1.821-0.022,2.728c-0.621,6.03-4.906,11.723-10.631,13.523c-0.422,0.133-0.844,0.234-1.264,0.32
		c-0.789,0.163-1.574,0.252-2.344,0.252c-0.221,0-0.435-0.032-0.653-0.045c-0.482-0.029-0.957-0.091-1.425-0.185v3.12
		c0,0.484,0.07,0.958,0.199,1.411l18.093-9.303L231.435-303.971z"/>
	<path fill="#FFFFFF" d="M222.819-295.954c0.035-3.326-1.331-5.603-3.463-6.431c0.801,1.241,3.264,6.183-2.071,13.89
		c-5.475,7.908-9.452,6.785-10.318,6.408c1.6,1.563,4.081,1.873,6.888,0.533C218.747-283.891,222.76-290.337,222.819-295.954z"/>
	<path fill="#FFDB00" d="M216.447-289.418c4.768-5.951,3.211-11.747,2.784-13.015c-1.445-0.516-3.226-0.386-5.165,0.54
		c-4.893,2.336-8.906,8.782-8.965,14.398c-0.024,2.346,0.651,4.166,1.796,5.331C208.795-281.911,210.974-282.586,216.447-289.418z
		 M208.715-291.958c1.863-4.94,6.544-8.104,10.922-8.408c0,0-5.651,1.328-9.015,8.104c-3.034,6.111-1.561,9.101-1.561,9.101
		S206.852-287.018,208.715-291.958z"/>
	<path d="M210.623-292.262c3.363-6.776,9.015-8.104,9.015-8.104c-4.378,0.303-9.059,3.467-10.922,8.408
		c-1.863,4.941,0.347,8.798,0.347,8.798S207.588-286.151,210.623-292.262z"/>
	<polygon points="40.676,-305.288 25.862,-267.203 10.662,-306.463 0,-306.463 20.963,-255.82 30.833,-255.82 50.727,-303.881 
		51.795,-306.463 41.133,-306.463 	"/>
	<polygon points="162.554,-288.226 159.995,-284.708 156.854,-289.023 144.218,-306.391 133.268,-306.391 133.268,-292.325 
		133.268,-255.965 142.777,-255.965 142.777,-290.994 142.777,-292.632 144.111,-290.807 158.841,-270.66 160.714,-270.66 
		172.811,-286.79 177.139,-292.56 177.139,-286.184 177.139,-255.965 186.648,-255.965 186.648,-284.852 186.648,-306.391 
		175.77,-306.391 	"/>
	<polygon points="96.242,-306.463 85.868,-306.463 82.702,-299.405 63.248,-256.037 73.55,-256.037 77.872,-265.545 
		81.689,-274.406 91.055,-295.874 100.419,-274.406 104.237,-265.545 108.487,-256.037 118.861,-256.037 100.528,-296.909 	"/>
	<path d="M224.064-350.252c4.317-1.927,6.045-5.381,6.045-8.968c0-9.367-6.843-13.486-16.011-13.486c-7.374,0-14.747,0-22.056,0
		v33.232v2.067h1.531h7.105v-8.926h13.419c3.588,0,8.703,2.192,8.703,6.377c0,4.385-5.115,5.581-8.703,5.581h-3.833v0.033h-14.314
		l-0.011-0.015h-3.897h-11.574l3.458,8.167h17.956h11.095v-0.014c0.374,0,0.746,0,1.121,0c9.633,0,17.405-3.322,17.405-13.685
		C231.503-342.812,229.511-348.591,224.064-350.252z M214.098-354.039h-13.419v-10.695h13.419c5.581,0,7.308,3.587,7.308,5.713
		C221.406-356.364,219.613-354.039,214.098-354.039z"/>
	<polygon points="92.527,-372.707 83.758,-372.707 83.758,-326.204 124.361,-326.204 128.103,-334.309 92.527,-334.309 	"/>
	<g>
		<path d="M150.904-330.571v-0.989h-9.621l1.798-3.813h9.685v-0.989h-9.218l1.907-4.045h18.151l6.091,13.941h10.37l-22.948-51.365
			c-0.829-1.854-3.449-1.888-4.325-0.056l-24.575,51.42h10.663l1.936-4.105H150.904z M155.348-372.73c1.215,0,2.201,0.985,2.201,2.2
			s-0.985,2.2-2.201,2.2s-2.2-0.985-2.2-2.2S154.133-372.73,155.348-372.73z M150.083-350.284v-5.132h-1.238v-2.164h10.877v2.164
			h-1.141v5.414c0.338,1.745,3.715,5.009,3.715,5.009h-15.366C150.196-348.482,150.083-350.284,150.083-350.284z"/>
		<circle cx="146.337" cy="-377.865" r="2.2"/>
		<circle cx="161.531" cy="-384.256" r="3.982"/>
	</g>
</g>
<g>
	<g>
		<path fill="#FFFFFF" d="M295.135,101.369c-6.052-0.721-11.237-1.944-11.237-6.339c0-3.746,3.386-6.699,10.444-6.699
			c5.476,0,10.229,2.737,11.959,5.618l7.563-3.89c-3.818-7.78-11.959-10.013-19.811-10.013c-9.292,0.072-19.521,4.322-19.521,14.695
			c0,11.31,9.509,14.047,19.81,15.271c6.699,0.721,11.67,2.665,11.67,7.42c0,5.475-5.619,7.564-11.598,7.564
			c-6.124,0-11.958-2.449-14.191-7.996l-7.924,4.105c3.746,9.221,11.67,12.391,21.971,12.391c11.238,0,21.18-4.826,21.18-16.064
			C315.45,105.403,305.652,102.666,295.135,101.369z"/>
		<path fill="none" d="M216.447,98.82c4.768-5.951,3.211-11.747,2.784-13.015c-1.445-0.517-3.226-0.386-5.165,0.54
			c-4.893,2.336-8.906,8.782-8.965,14.398c-0.024,2.346,0.651,4.165,1.796,5.331C208.795,106.327,210.974,105.652,216.447,98.82z"/>
		<path fill="#FFFFFF" d="M257.454,86.682l-21.818-12.597c-2.237-1.292-4.994-1.292-7.231,0l-21.819,12.597
			c-2.237,1.292-3.615,3.679-3.615,6.263v25.194c0,2.583,1.378,4.971,3.615,6.263l21.819,12.597c2.237,1.292,4.994,1.292,7.231,0
			l21.818-12.597c2.237-1.292,3.616-3.68,3.616-6.263V92.944C261.07,90.36,259.691,87.974,257.454,86.682z M205.101,100.744
			c0.059-5.616,4.072-12.063,8.965-14.398c1.939-0.926,3.72-1.057,5.165-0.54c0.427,1.268,1.983,7.063-2.784,13.015
			c-5.473,6.832-7.651,7.507-9.55,7.255C205.752,104.909,205.077,103.09,205.101,100.744z M206.966,106.15
			c0.866,0.378,4.844,1.501,10.318-6.407c5.335-7.706,2.872-12.648,2.071-13.89c2.132,0.829,3.498,3.105,3.463,6.432
			c-0.059,5.616-4.072,12.063-8.965,14.398C211.047,108.023,208.566,107.714,206.966,106.15z M214.595,108.398
			c5.803-2.691,10.506-10.235,10.506-16.851c0-2.043-0.451-3.756-1.242-5.071l0.864,0.341c1.895,1.597,3.109,3.937,3.454,6.714
			c0.538,4.333-1.174,8.814-4.168,11.966c-1.174,1.235-2.543,2.261-4.057,2.994c-0.551,0.268-1.115,0.509-1.701,0.693
			c-2.182,0.686-4.348,0.687-6.289,0.04C212.805,109.082,213.684,108.82,214.595,108.398z M212.867,113.601v-3.12
			c0.468,0.094,0.942,0.155,1.425,0.185c0.219,0.013,0.433,0.045,0.653,0.045c0.77,0,1.555-0.089,2.344-0.252
			c0.42-0.086,0.842-0.188,1.264-0.32c5.725-1.801,10.01-7.493,10.631-13.523c0.093-0.906,0.103-1.817,0.022-2.728
			c-0.015-0.159-0.017-0.319-0.036-0.479c-0.111-0.896-0.308-1.751-0.581-2.557c-0.396-1.168-0.953-2.232-1.662-3.165
			c-0.235-0.31-0.487-0.604-0.755-0.885l3.251-1.876c0.629-0.363,1.314-0.579,2.013-0.658l-0.276,21.44l-18.093,9.303
			C212.937,114.558,212.867,114.084,212.867,113.601z M248.575,118.099l-13.958,8.059c-1.607,0.928-3.588,0.928-5.194,0
			l-13.958-8.059c-0.588-0.339-1.091-0.785-1.495-1.304l17.992-9.25l18.081,9.281C249.642,117.33,249.15,117.767,248.575,118.099z
			 M251.171,113.601c0,0.497-0.076,0.982-0.211,1.448l-17.805-9.139l0.277-21.479c0.408,0.115,0.807,0.277,1.184,0.495l13.958,8.059
			c1.607,0.928,2.597,2.643,2.597,4.498V113.601z"/>
		<path fill="#FFDB00" d="M216.447,98.82c4.768-5.951,3.211-11.747,2.784-13.015c-1.445-0.517-3.226-0.386-5.165,0.54
			c-4.893,2.336-8.906,8.782-8.965,14.398c-0.024,2.346,0.651,4.165,1.796,5.331C208.795,106.327,210.974,105.652,216.447,98.82z
			 M208.715,96.28c1.863-4.941,6.544-8.104,10.922-8.408c0,0-5.651,1.328-9.015,8.104c-3.034,6.11-1.561,9.102-1.561,9.102
			S206.852,101.221,208.715,96.28z"/>
		<polygon fill="#FFFFFF" points="40.676,82.95 25.862,121.035 10.662,81.775 0,81.775 20.963,132.418 30.833,132.418 
			50.727,84.357 51.795,81.775 41.133,81.775 		"/>
		<polygon fill="#FFFFFF" points="162.554,100.013 159.995,103.53 156.854,99.215 144.218,81.848 133.268,81.848 133.268,95.913 
			133.268,132.273 142.777,132.273 142.777,97.244 142.777,95.606 144.111,97.431 158.841,117.578 160.714,117.578 172.811,101.449 
			177.139,95.679 177.139,102.055 177.139,132.273 186.648,132.273 186.648,103.386 186.648,81.848 175.77,81.848 		"/>
		<polygon fill="#FFFFFF" points="96.242,81.775 85.868,81.775 82.702,88.834 63.248,132.201 73.55,132.201 77.872,122.692 
			81.689,113.832 91.055,92.364 100.419,113.832 104.237,122.692 108.487,132.201 118.861,132.201 100.528,91.329 		"/>
		<path fill="#FFFFFF" d="M224.064,37.986c4.317-1.927,6.045-5.382,6.045-8.969c0-9.367-6.843-13.486-16.011-13.486
			c-7.374,0-14.747,0-22.056,0v33.232v2.067h1.531h7.105v-8.926h13.419c3.588,0,8.703,2.192,8.703,6.378
			c0,4.385-5.115,5.58-8.703,5.58h-3.833v0.033h-14.314l-0.011-0.015h-3.897h-11.574l3.458,8.167h17.956h11.095v-0.015
			c0.374,0,0.746,0,1.121,0c9.633,0,17.405-3.321,17.405-13.685C231.503,45.427,229.511,39.647,224.064,37.986z M214.098,34.199
			h-13.419V23.504h13.419c5.581,0,7.308,3.587,7.308,5.713C221.406,31.874,219.613,34.199,214.098,34.199z"/>
		<polygon fill="#FFFFFF" points="92.527,15.531 83.758,15.531 83.758,62.034 124.361,62.034 128.103,53.93 92.527,53.93 		"/>
		<path fill="#FFFFFF" d="M150.904,57.667v-0.988h-9.621l1.798-3.813h9.685v-0.989h-9.218l1.907-4.045h18.151l6.091,13.941h10.37
			l-22.948-51.364c-0.829-1.854-3.449-1.889-4.325-0.056l-24.575,51.42h10.663l1.936-4.105H150.904z M155.348,15.508
			c1.215,0,2.201,0.985,2.201,2.2s-0.985,2.2-2.201,2.2s-2.2-0.985-2.2-2.2S154.133,15.508,155.348,15.508z M150.083,37.955v-5.133
			h-1.238v-2.163h10.877v2.163h-1.141v5.414c0.338,1.745,3.715,5.01,3.715,5.01h-15.366
			C150.196,39.756,150.083,37.955,150.083,37.955z"/>
		<circle fill="#FFFFFF" cx="146.337" cy="10.373" r="2.2"/>
	</g>
	<circle fill="#FFFFFF" cx="161.531" cy="3.981" r="3.982"/>
</g>
<g>
	<path fill="#262626" d="M295.135-102.644c-6.052-0.721-11.237-1.945-11.237-6.339c0-3.746,3.386-6.7,10.444-6.7
		c5.476,0,10.229,2.737,11.959,5.619l7.563-3.89c-3.818-7.78-11.959-10.013-19.811-10.013c-9.292,0.072-19.521,4.322-19.521,14.695
		c0,11.31,9.509,14.047,19.81,15.272c6.699,0.721,11.67,2.665,11.67,7.42c0,5.475-5.619,7.564-11.598,7.564
		c-6.124,0-11.958-2.449-14.191-7.996l-7.924,4.106c3.746,9.221,11.67,12.39,21.971,12.39c11.238,0,21.18-4.826,21.18-16.064
		C315.45-98.61,305.652-101.348,295.135-102.644z"/>
	<path fill="#262626" d="M257.454-117.332l-21.818-12.597c-2.237-1.292-4.994-1.292-7.231,0l-21.819,12.597
		c-2.237,1.292-3.615,3.679-3.615,6.262v25.194c0,2.583,1.378,4.971,3.615,6.263l21.819,12.597c2.237,1.292,4.994,1.292,7.231,0
		l21.818-12.597c2.237-1.292,3.616-3.679,3.616-6.263v-25.194C261.07-113.653,259.691-116.041,257.454-117.332z M205.101-103.27
		c0.059-5.616,4.072-12.063,8.965-14.399c1.939-0.926,3.72-1.056,5.165-0.54c0.427,1.268,1.983,7.063-2.784,13.015
		c-5.473,6.832-7.651,7.506-9.55,7.254C205.752-99.104,205.077-100.924,205.101-103.27z M206.966-97.863
		c0.866,0.377,4.844,1.5,10.318-6.408c5.335-7.706,2.872-12.648,2.071-13.889c2.132,0.829,3.498,3.105,3.463,6.431
		c-0.059,5.616-4.072,12.063-8.965,14.398C211.047-95.99,208.566-96.3,206.966-97.863z M214.595-95.616
		c5.803-2.691,10.506-10.235,10.506-16.85c0-2.043-0.451-3.756-1.242-5.072l0.864,0.341c1.895,1.596,3.109,3.937,3.454,6.714
		c0.538,4.333-1.174,8.814-4.168,11.966c-1.174,1.235-2.543,2.261-4.057,2.994c-0.551,0.268-1.115,0.509-1.701,0.693
		c-2.182,0.686-4.348,0.687-6.289,0.041C212.805-94.932,213.684-95.193,214.595-95.616z M212.867-90.414v-3.119
		c0.468,0.094,0.942,0.155,1.425,0.184c0.219,0.013,0.433,0.045,0.653,0.045c0.77,0,1.555-0.089,2.344-0.251
		c0.42-0.086,0.842-0.188,1.264-0.321c5.725-1.8,10.01-7.492,10.631-13.523c0.093-0.906,0.103-1.818,0.022-2.728
		c-0.015-0.16-0.017-0.32-0.036-0.479c-0.111-0.896-0.308-1.75-0.581-2.557c-0.396-1.167-0.953-2.232-1.662-3.165
		c-0.235-0.31-0.487-0.604-0.755-0.884l3.251-1.876c0.629-0.363,1.314-0.579,2.013-0.658l-0.276,21.441l-18.093,9.303
		C212.937-89.457,212.867-89.93,212.867-90.414z M248.575-85.915l-13.958,8.059c-1.607,0.928-3.588,0.928-5.194,0l-13.958-8.059
		c-0.588-0.339-1.091-0.786-1.495-1.304l17.992-9.25l18.081,9.281C249.642-86.684,249.15-86.248,248.575-85.915z M251.171-90.414
		c0,0.498-0.076,0.983-0.211,1.449l-17.805-9.139l0.277-21.479c0.408,0.116,0.807,0.277,1.184,0.495l13.958,8.059
		c1.607,0.928,2.597,2.643,2.597,4.499V-90.414z"/>
	<path fill="#FFFFFF" d="M213.969-87.219c0.404,0.518,0.907,0.964,1.495,1.304l13.958,8.059c1.606,0.928,3.587,0.928,5.194,0
		l13.958-8.059c0.575-0.333,1.067-0.769,1.468-1.273l-18.081-9.281L213.969-87.219z"/>
	<path fill="#FFFFFF" d="M248.575-111.03l-13.958-8.059c-0.377-0.218-0.775-0.379-1.184-0.495l-0.277,21.479l17.805,9.139
		c0.135-0.465,0.211-0.951,0.211-1.449v-16.117C251.171-108.387,250.182-110.102,248.575-111.03z"/>
	<path fill="#FFFFFF" d="M218.251-94.83c0.586-0.185,1.15-0.426,1.701-0.693c1.514-0.733,2.883-1.759,4.057-2.994
		c2.994-3.151,4.706-7.633,4.168-11.966c-0.345-2.777-1.56-5.118-3.454-6.714l-0.864-0.341c0.791,1.316,1.242,3.029,1.242,5.072
		c0,6.615-4.703,14.159-10.506,16.85c-0.911,0.422-1.79,0.684-2.633,0.827C213.904-94.143,216.07-94.144,218.251-94.83z"/>
	<path fill="#FFFFFF" d="M231.435-119.747c-0.698,0.079-1.384,0.295-2.013,0.658l-3.251,1.876c0.268,0.28,0.52,0.575,0.755,0.884
		c0.709,0.933,1.267,1.998,1.662,3.165c0.273,0.806,0.47,1.661,0.581,2.557c0.02,0.159,0.021,0.319,0.036,0.479
		c0.08,0.91,0.07,1.821-0.022,2.728c-0.621,6.031-4.906,11.723-10.631,13.523c-0.422,0.133-0.844,0.234-1.264,0.321
		c-0.789,0.162-1.574,0.251-2.344,0.251c-0.221,0-0.435-0.032-0.653-0.045c-0.482-0.029-0.957-0.09-1.425-0.184v3.119
		c0,0.484,0.07,0.958,0.199,1.411l18.093-9.303L231.435-119.747z"/>
	<path fill="#FFFFFF" d="M222.819-111.729c0.035-3.326-1.331-5.603-3.463-6.431c0.801,1.241,3.264,6.183-2.071,13.889
		c-5.475,7.908-9.452,6.785-10.318,6.408c1.6,1.563,4.081,1.873,6.888,0.533C218.747-99.667,222.76-106.113,222.819-111.729z"/>
	<path fill="#FFDB00" d="M216.447-105.193c4.768-5.952,3.211-11.747,2.784-13.015c-1.445-0.517-3.226-0.386-5.165,0.54
		c-4.893,2.336-8.906,8.783-8.965,14.399c-0.024,2.345,0.651,4.165,1.796,5.331C208.795-97.687,210.974-98.362,216.447-105.193z
		 M208.715-107.734c1.863-4.941,6.544-8.105,10.922-8.408c0,0-5.651,1.329-9.015,8.104c-3.034,6.111-1.561,9.102-1.561,9.102
		S206.852-102.793,208.715-107.734z"/>
	<path fill="#262626" d="M210.623-108.038c3.363-6.776,9.015-8.104,9.015-8.104c-4.378,0.303-9.059,3.467-10.922,8.408
		c-1.863,4.94,0.347,8.798,0.347,8.798S207.588-101.927,210.623-108.038z"/>
	<polygon fill="#262626" points="25.862,-82.979 10.662,-122.239 0,-122.239 20.963,-71.596 30.833,-71.596 50.727,-119.657 
		40.676,-121.064 	"/>
	<polygon fill="#262626" points="177.139,-71.74 186.648,-71.74 186.648,-100.628 177.139,-101.959 	"/>
	<polygon fill="#262626" points="159.995,-100.483 156.854,-104.799 144.111,-106.583 158.841,-86.436 160.714,-86.436 
		172.811,-102.565 162.554,-104.001 	"/>
	<polygon fill="#262626" points="133.268,-71.74 142.777,-71.74 142.777,-106.77 133.268,-108.101 	"/>
	<polygon fill="#262626" points="82.702,-115.18 63.248,-71.813 73.55,-71.813 77.872,-81.321 81.689,-90.182 91.055,-111.649 
		100.419,-90.182 104.237,-81.321 108.487,-71.813 118.861,-71.813 100.528,-112.685 	"/>
	<polygon fill="#FFDB00" points="40.676,-121.064 50.727,-119.657 51.795,-122.239 41.133,-122.239 	"/>
	<polygon fill="#FFDB00" points="144.218,-122.167 133.268,-122.167 133.268,-108.101 142.777,-106.77 142.777,-108.408 
		144.111,-106.583 156.854,-104.799 	"/>
	<polygon fill="#FFDB00" points="162.554,-104.001 172.811,-102.565 177.139,-108.335 177.139,-101.959 186.648,-100.628 
		186.648,-122.167 175.77,-122.167 	"/>
	<polygon fill="#FFDB00" points="96.242,-122.239 85.868,-122.239 82.702,-115.18 100.528,-112.685 	"/>
	<path fill="none" d="M214.098-180.51h-13.419v10.695h13.419c5.515,0,7.308-2.325,7.308-4.982
		C221.406-176.923,219.679-180.51,214.098-180.51z"/>
	<path fill="#262626" d="M224.064-166.028c4.317-1.927,6.045-5.381,6.045-8.968c0-9.367-6.843-13.486-16.011-13.486
		c-7.374,0-14.747,0-22.056,0v33.232v2.067h1.531h7.105v-8.925h13.419c3.588,0,8.703,2.192,8.703,6.377
		c0,4.385-5.115,5.58-8.703,5.58h-3.833v0.034h-14.314l5.921,8.138l0.011,0.015h11.095v-0.015c0.374,0,0.746,0,1.121,0
		c9.633,0,17.405-3.321,17.405-13.685C231.503-158.587,229.511-164.367,224.064-166.028z M214.098-169.815h-13.419v-10.695h13.419
		c5.581,0,7.308,3.587,7.308,5.713C221.406-172.14,219.613-169.815,214.098-169.815z"/>
	<polygon fill="#FFDB00" points="92.527,-188.482 83.758,-188.482 83.758,-141.979 124.384,-141.979 128.103,-150.084 
		92.527,-150.084 	"/>
	<polygon fill="#FFDB00" points="195.951,-150.117 195.94,-150.132 192.042,-150.132 180.468,-150.132 183.926,-141.965 
		201.882,-141.965 201.872,-141.979 	"/>
	<g>
		<path fill="#FFDB00" d="M151.115-146.006v-0.989h-9.62l1.797-3.813h9.685v-0.989h-9.218l1.907-4.045h18.15l6.091,13.941h10.37
			l-22.948-51.365c-0.829-1.854-3.449-1.888-4.324-0.056l-24.575,51.42h10.663l1.936-4.105H151.115z M155.559-188.166
			c1.215,0,2.201,0.985,2.201,2.201s-0.985,2.2-2.201,2.2c-1.215,0-2.2-0.985-2.2-2.2S154.344-188.166,155.559-188.166z
			 M150.294-165.719v-5.132h-1.238v-2.164h10.878v2.164h-1.142v5.414c0.338,1.745,3.715,5.009,3.715,5.009h-15.366
			C150.407-163.917,150.294-165.719,150.294-165.719z"/>
		<circle fill="#FFDB00" cx="146.548" cy="-193.3" r="2.2"/>
		<circle fill="#FFDB00" cx="161.741" cy="-199.691" r="3.982"/>
	</g>
</g>
<path fill="#FFFFFF" d="M295.135,306.486c-6.052-0.721-11.237-1.945-11.237-6.34c0-3.746,3.386-6.699,10.444-6.699
	c5.476,0,10.229,2.737,11.959,5.618l7.563-3.89c-3.818-7.78-11.959-10.014-19.811-10.014c-9.292,0.072-19.521,4.323-19.521,14.696
	c0,11.31,9.509,14.047,19.81,15.271c6.699,0.721,11.67,2.665,11.67,7.42c0,5.475-5.619,7.564-11.598,7.564
	c-6.124,0-11.958-2.449-14.191-7.996l-7.924,4.105c3.746,9.221,11.67,12.391,21.971,12.391c11.238,0,21.18-4.826,21.18-16.064
	C315.45,310.52,305.652,307.782,295.135,306.486z"/>
<path fill="#FFFFFF" d="M257.454,291.798L235.635,279.2c-2.237-1.291-4.994-1.291-7.231,0l-21.819,12.598
	c-2.237,1.292-3.615,3.679-3.615,6.263v25.194c0,2.583,1.378,4.971,3.615,6.262l21.819,12.598c2.237,1.292,4.994,1.292,7.231,0
	l21.818-12.598c2.237-1.291,3.616-3.679,3.616-6.262v-25.194C261.07,295.477,259.691,293.09,257.454,291.798z M205.101,305.86
	c0.059-5.616,4.072-12.063,8.965-14.398c1.939-0.926,3.72-1.057,5.165-0.54c0.427,1.268,1.983,7.063-2.784,13.015
	c-5.473,6.832-7.651,7.507-9.55,7.255C205.752,310.025,205.077,308.206,205.101,305.86z M206.966,311.267
	c0.866,0.378,4.844,1.501,10.318-6.407c5.335-7.707,2.872-12.648,2.071-13.89c2.132,0.829,3.498,3.105,3.463,6.432
	c-0.059,5.616-4.072,12.063-8.965,14.398C211.047,313.14,208.566,312.83,206.966,311.267z M214.595,313.515
	c5.803-2.691,10.506-10.235,10.506-16.851c0-2.043-0.451-3.756-1.242-5.072l0.864,0.342c1.895,1.596,3.109,3.936,3.454,6.714
	c0.538,4.333-1.174,8.814-4.168,11.966c-1.174,1.235-2.543,2.261-4.057,2.994c-0.551,0.268-1.115,0.509-1.701,0.693
	c-2.182,0.686-4.348,0.687-6.289,0.04C212.805,314.198,213.684,313.937,214.595,313.515z M212.867,318.716v-3.119
	c0.468,0.094,0.942,0.155,1.425,0.185c0.219,0.013,0.433,0.045,0.653,0.045c0.77,0,1.555-0.09,2.344-0.252
	c0.42-0.087,0.842-0.188,1.264-0.32c5.725-1.801,10.01-7.492,10.631-13.523c0.093-0.906,0.103-1.817,0.022-2.728
	c-0.015-0.159-0.017-0.319-0.036-0.479c-0.111-0.896-0.308-1.751-0.581-2.557c-0.396-1.168-0.953-2.232-1.662-3.165
	c-0.235-0.31-0.487-0.604-0.755-0.885l3.251-1.876c0.629-0.363,1.314-0.579,2.013-0.658l-0.276,21.44l-18.093,9.303
	C212.937,319.674,212.867,319.2,212.867,318.716z M248.575,323.215l-13.958,8.059c-1.607,0.928-3.588,0.928-5.194,0l-13.958-8.059
	c-0.588-0.339-1.091-0.785-1.495-1.304l17.992-9.251l18.081,9.281C249.642,322.446,249.15,322.883,248.575,323.215z
	 M251.171,318.716c0,0.498-0.076,0.983-0.211,1.449l-17.805-9.139l0.277-21.479c0.408,0.115,0.807,0.277,1.184,0.495l13.958,8.059
	c1.607,0.928,2.597,2.643,2.597,4.498V318.716z"/>
<path fill="#FFDB00" d="M216.447,303.937c4.768-5.951,3.211-11.747,2.784-13.015c-1.445-0.517-3.226-0.386-5.165,0.54
	c-4.893,2.336-8.906,8.782-8.965,14.398c-0.024,2.346,0.651,4.165,1.796,5.331C208.795,311.443,210.974,310.769,216.447,303.937z
	 M208.715,301.396c1.863-4.94,6.544-8.104,10.922-8.407c0,0-5.651,1.328-9.015,8.104c-3.034,6.11-1.561,9.102-1.561,9.102
	S206.852,306.337,208.715,301.396z"/>
<polygon fill="#FFFFFF" points="25.862,326.151 10.662,286.892 0,286.892 20.963,337.534 30.833,337.534 50.727,289.474 
	40.676,288.066 "/>
<polygon fill="#FFFFFF" points="177.139,337.39 186.648,337.39 186.648,308.502 177.139,307.171 "/>
<polygon fill="#FFFFFF" points="159.995,308.646 156.854,304.331 144.111,302.547 158.841,322.694 160.714,322.694 172.811,306.565 
	162.554,305.129 "/>
<polygon fill="#FFFFFF" points="133.268,337.39 142.777,337.39 142.777,302.36 133.268,301.029 "/>
<polygon fill="#FFFFFF" points="82.702,293.95 63.248,337.317 73.55,337.317 77.872,327.809 81.689,318.948 91.055,297.48 
	100.419,318.948 104.237,327.809 108.487,337.317 118.861,337.317 100.528,296.445 "/>
<polygon fill="#FFDB00" points="40.676,288.066 50.727,289.474 51.795,286.892 41.133,286.892 "/>
<polygon fill="#FFDB00" points="144.218,286.964 133.268,286.964 133.268,301.029 142.777,302.36 142.777,300.723 144.111,302.547 
	156.854,304.331 "/>
<polygon fill="#FFDB00" points="162.554,305.129 172.811,306.565 177.139,300.795 177.139,307.171 186.648,308.502 186.648,286.964 
	175.77,286.964 "/>
<polygon fill="#FFDB00" points="96.242,286.892 85.868,286.892 82.702,293.95 100.528,296.445 "/>
<path fill="none" d="M214.098,228.62h-13.419v10.695h13.419c5.515,0,7.308-2.325,7.308-4.982
	C221.406,232.207,219.679,228.62,214.098,228.62z"/>
<path fill="#FFFFFF" d="M224.064,243.103c4.317-1.927,6.045-5.382,6.045-8.969c0-9.367-6.843-13.486-16.011-13.486
	c-7.374,0-14.747,0-22.056,0v33.232v2.067h1.531h7.105v-8.926h13.419c3.588,0,8.703,2.192,8.703,6.378
	c0,4.385-5.115,5.58-8.703,5.58h-3.833v0.033h-14.314l5.921,8.138l0.011,0.015h11.095v-0.015c0.374,0,0.746,0,1.121,0
	c9.633,0,17.405-3.321,17.405-13.685C231.503,250.543,229.511,244.764,224.064,243.103z M214.098,239.315h-13.419V228.62h13.419
	c5.581,0,7.308,3.587,7.308,5.713C221.406,236.99,219.613,239.315,214.098,239.315z"/>
<polygon fill="#FFDB00" points="92.527,220.647 83.758,220.647 83.758,267.15 124.384,267.15 128.103,259.046 92.527,259.046 "/>
<polygon fill="#FFDB00" points="195.951,259.013 195.94,258.998 192.042,258.998 180.468,258.998 183.926,267.165 201.882,267.165 
	201.872,267.15 "/>
<path fill="#FFDB00" d="M151.115,263.124v-0.989h-9.62l1.797-3.813h9.685v-0.989h-9.218l1.907-4.045h18.15l6.091,13.941h10.37
	l-22.948-51.365c-0.829-1.854-3.449-1.888-4.324-0.056l-24.575,51.421h10.663l1.936-4.105H151.115z M155.559,220.965
	c1.215,0,2.201,0.984,2.201,2.2c0,1.215-0.985,2.2-2.201,2.2c-1.215,0-2.2-0.985-2.2-2.2
	C153.359,221.949,154.344,220.965,155.559,220.965z M150.294,243.411v-5.132h-1.238v-2.163h10.878v2.163h-1.142v5.414
	c0.338,1.744,3.715,5.009,3.715,5.009h-15.366C150.407,245.213,150.294,243.411,150.294,243.411z"/>
<circle fill="#FFDB00" cx="146.548" cy="215.83" r="2.2"/>
<circle fill="#FFDB00" cx="161.741" cy="209.438" r="3.982"/>
</svg>
