<?xml version="1.0" encoding="utf-8"?>
<svg version="1.1" xmlns="http://www.w3.org/2000/svg" xmlns:xlink="http://www.w3.org/1999/xlink" x="0px" y="0px"
	 width="315.45px" height="137.626px" viewBox="0 0 315.45 137.626" enable-background="new 0 0 315.45 137.626"
	 xml:space="preserve">
<g>
	<path fill="#FFFFFF" d="M295.135,101.029c-6.052-0.721-11.237-1.945-11.237-6.34c0-3.746,3.386-6.699,10.444-6.699
		c5.476,0,10.229,2.737,11.959,5.618l7.563-3.89c-3.818-7.78-11.959-10.014-19.811-10.014c-9.292,0.072-19.521,4.323-19.521,14.696
		c0,11.31,9.509,14.047,19.81,15.271c6.699,0.721,11.67,2.665,11.67,7.42c0,5.475-5.619,7.564-11.598,7.564
		c-6.124,0-11.958-2.449-14.191-7.996l-7.924,4.105c3.746,9.221,11.67,12.391,21.971,12.391c11.238,0,21.18-4.826,21.18-16.064
		C315.45,105.063,305.652,102.325,295.135,101.029z"/>
	<path fill="#FFFFFF" d="M257.454,86.341l-21.818-12.598c-2.237-1.291-4.994-1.291-7.231,0l-21.819,12.598
		c-2.237,1.292-3.615,3.679-3.615,6.263v25.194c0,2.583,1.378,4.971,3.615,6.262l21.819,12.598c2.237,1.292,4.994,1.292,7.231,0
		l21.818-12.598c2.237-1.291,3.616-3.679,3.616-6.262V92.604C261.07,90.02,259.691,87.633,257.454,86.341z M205.101,100.403
		c0.059-5.616,4.072-12.063,8.965-14.398c1.939-0.926,3.72-1.057,5.165-0.54c0.427,1.268,1.983,7.063-2.784,13.015
		c-5.473,6.832-7.651,7.507-9.55,7.255C205.752,104.568,205.077,102.749,205.101,100.403z M206.966,105.81
		c0.866,0.378,4.844,1.501,10.318-6.407c5.335-7.707,2.872-12.648,2.071-13.89c2.132,0.829,3.498,3.105,3.463,6.432
		c-0.059,5.616-4.072,12.063-8.965,14.398C211.047,107.683,208.566,107.373,206.966,105.81z M214.595,108.058
		c5.803-2.691,10.506-10.235,10.506-16.851c0-2.043-0.451-3.756-1.242-5.072l0.864,0.342c1.895,1.596,3.109,3.936,3.454,6.714
		c0.538,4.333-1.174,8.814-4.168,11.966c-1.174,1.235-2.543,2.261-4.057,2.994c-0.551,0.268-1.115,0.509-1.701,0.693
		c-2.182,0.686-4.348,0.687-6.289,0.04C212.805,108.741,213.684,108.479,214.595,108.058z M212.867,113.259v-3.119
		c0.468,0.094,0.942,0.155,1.425,0.185c0.219,0.013,0.433,0.045,0.653,0.045c0.77,0,1.555-0.09,2.344-0.252
		c0.42-0.087,0.842-0.188,1.264-0.32c5.725-1.801,10.01-7.492,10.631-13.523c0.093-0.906,0.103-1.817,0.022-2.728
		c-0.015-0.159-0.017-0.319-0.036-0.479c-0.111-0.896-0.308-1.751-0.581-2.557c-0.396-1.168-0.953-2.232-1.662-3.165
		c-0.235-0.31-0.487-0.604-0.755-0.885l3.251-1.876c0.629-0.363,1.314-0.579,2.013-0.658l-0.276,21.44l-18.093,9.303
		C212.937,114.217,212.867,113.743,212.867,113.259z M248.575,117.758l-13.958,8.059c-1.607,0.928-3.588,0.928-5.194,0
		l-13.958-8.059c-0.588-0.339-1.091-0.785-1.495-1.304l17.992-9.251l18.081,9.281C249.642,116.989,249.15,117.426,248.575,117.758z
		 M251.171,113.259c0,0.498-0.076,0.983-0.211,1.449l-17.805-9.139l0.277-21.479c0.408,0.115,0.807,0.277,1.184,0.495l13.958,8.059
		c1.607,0.928,2.597,2.643,2.597,4.498V113.259z"/>
	<path fill="#FFD600" d="M216.447,98.479c4.768-5.951,3.211-11.747,2.784-13.015c-1.445-0.517-3.226-0.386-5.165,0.54
		c-4.893,2.336-8.906,8.782-8.965,14.398c-0.024,2.346,0.651,4.165,1.796,5.331C208.795,105.986,210.974,105.312,216.447,98.479z
		 M208.715,95.938c1.863-4.94,6.544-8.104,10.922-8.407c0,0-5.651,1.328-9.015,8.104c-3.034,6.11-1.561,9.102-1.561,9.102
		S206.852,100.88,208.715,95.938z"/>
	<polygon fill="#FFFFFF" points="25.862,120.694 10.662,81.435 0,81.435 20.963,132.077 30.833,132.077 50.727,84.017 
		40.676,82.609 	"/>
	<polygon fill="#FFFFFF" points="177.139,131.933 186.648,131.933 186.648,103.045 177.139,101.714 	"/>
	<polygon fill="#FFFFFF" points="159.995,103.189 156.854,98.874 144.111,97.09 158.841,117.237 160.714,117.237 172.811,101.108 
		162.554,99.672 	"/>
	<polygon fill="#FFFFFF" points="133.268,131.933 142.777,131.933 142.777,96.903 133.268,95.572 	"/>
	<polygon fill="#FFFFFF" points="82.702,88.493 63.248,131.86 73.55,131.86 77.872,122.352 81.689,113.491 91.055,92.023 
		100.419,113.491 104.237,122.352 108.487,131.86 118.861,131.86 100.528,90.988 	"/>
	<polygon fill="#FFD600" points="40.676,82.609 50.727,84.017 51.795,81.435 41.133,81.435 	"/>
	<polygon fill="#FFD600" points="144.218,81.507 133.268,81.507 133.268,95.572 142.777,96.903 142.777,95.266 144.111,97.09 
		156.854,98.874 	"/>
	<polygon fill="#FFD600" points="162.554,99.672 172.811,101.108 177.139,95.338 177.139,101.714 186.648,103.045 186.648,81.507 
		175.77,81.507 	"/>
	<polygon fill="#FFD600" points="96.242,81.435 85.868,81.435 82.702,88.493 100.528,90.988 	"/>
	<path fill="none" d="M214.098,23.163h-13.419v10.695h13.419c5.515,0,7.308-2.325,7.308-4.982
		C221.406,26.75,219.679,23.163,214.098,23.163z"/>
	<path fill="#FFFFFF" d="M224.064,37.646c4.317-1.927,6.045-5.382,6.045-8.969c0-9.367-6.843-13.486-16.011-13.486
		c-7.374,0-14.747,0-22.056,0v33.232v2.067h1.531h7.105v-8.926h13.419c3.588,0,8.703,2.192,8.703,6.378
		c0,4.385-5.115,5.58-8.703,5.58h-3.833v0.033h-14.314l5.921,8.138l0.011,0.015h11.095v-0.015c0.374,0,0.746,0,1.121,0
		c9.633,0,17.405-3.321,17.405-13.685C231.503,45.086,229.511,39.307,224.064,37.646z M214.098,33.858h-13.419V23.163h13.419
		c5.581,0,7.308,3.587,7.308,5.713C221.406,31.533,219.613,33.858,214.098,33.858z"/>
	<polygon fill="#FFD600" points="92.527,15.19 83.758,15.19 83.758,61.693 124.384,61.693 128.103,53.589 92.527,53.589 	"/>
	<polygon fill="#FFD600" points="195.951,53.556 195.94,53.541 192.042,53.541 180.468,53.541 183.926,61.708 201.882,61.708 
		201.872,61.693 	"/>
	<path fill="#FFD600" d="M151.115,57.667v-0.989h-9.62l1.797-3.813h9.685v-0.989h-9.218l1.907-4.045h18.15l6.091,13.941h10.37
		l-22.948-51.365c-0.829-1.854-3.449-1.888-4.324-0.056L128.43,61.772h10.663l1.936-4.105H151.115z M155.559,15.508
		c1.215,0,2.201,0.984,2.201,2.2c0,1.215-0.985,2.2-2.201,2.2c-1.215,0-2.2-0.985-2.2-2.2
		C153.359,16.492,154.344,15.508,155.559,15.508z M150.294,37.954v-5.132h-1.238v-2.163h10.878v2.163h-1.142v5.414
		c0.338,1.744,3.715,5.009,3.715,5.009h-15.366C150.407,39.756,150.294,37.954,150.294,37.954z"/>
	<circle fill="#FFD600" cx="146.548" cy="10.373" r="2.2"/>
	<circle fill="#FFD600" cx="161.741" cy="3.981" r="3.982"/>
</g>
</svg>
