<?xml version="1.0" encoding="utf-8"?>
<svg version="1.1" xmlns="http://www.w3.org/2000/svg" xmlns:xlink="http://www.w3.org/1999/xlink" x="0px"
	 y="0px" width="315.45px" height="137.967px" viewBox="0 0 315.45 137.967" enable-background="new 0 0 315.45 137.967"
	 xml:space="preserve">
<rect x="-140.657" y="568.561" fill="#262626" width="596.137" height="205.102"/>
<g>
	<path d="M295.135,101.37c-6.052-0.721-11.237-1.945-11.237-6.339c0-3.746,3.386-6.7,10.444-6.7c5.476,0,10.229,2.738,11.959,5.619
		l7.563-3.89c-3.818-7.78-11.959-10.013-19.811-10.013c-9.292,0.072-19.521,4.323-19.521,14.695c0,11.311,9.509,14.048,19.81,15.272
		c6.699,0.721,11.67,2.666,11.67,7.42c0,5.475-5.619,7.564-11.598,7.564c-6.124,0-11.958-2.45-14.191-7.997l-7.924,4.106
		c3.746,9.221,11.67,12.391,21.971,12.391c11.238,0,21.18-4.826,21.18-16.064C315.45,105.403,305.652,102.666,295.135,101.37z"/>
	<path d="M257.454,86.682l-21.818-12.597c-2.237-1.292-4.994-1.292-7.231,0l-21.819,12.597c-2.237,1.292-3.615,3.679-3.615,6.263
		v25.194c0,2.583,1.378,4.971,3.615,6.262l21.819,12.597c2.237,1.292,4.994,1.292,7.231,0l21.818-12.597
		c2.237-1.292,3.616-3.679,3.616-6.262V92.944C261.07,90.361,259.691,87.974,257.454,86.682z M205.101,100.744
		c0.059-5.616,4.072-12.063,8.965-14.398c1.939-0.926,3.72-1.056,5.165-0.54c0.427,1.268,1.983,7.063-2.784,13.015
		c-5.473,6.832-7.651,7.507-9.55,7.255C205.752,104.91,205.077,103.09,205.101,100.744z M206.966,106.151
		c0.866,0.377,4.844,1.5,10.318-6.408c5.335-7.707,2.872-12.648,2.071-13.89c2.132,0.829,3.498,3.105,3.463,6.431
		c-0.059,5.616-4.072,12.063-8.965,14.399C211.047,108.023,208.566,107.713,206.966,106.151z M214.595,108.398
		c5.803-2.691,10.506-10.235,10.506-16.851c0-2.043-0.451-3.756-1.242-5.072l0.864,0.341c1.895,1.597,3.109,3.937,3.454,6.714
		c0.538,4.333-1.174,8.814-4.168,11.966c-1.174,1.235-2.543,2.26-4.057,2.994c-0.551,0.267-1.115,0.509-1.701,0.693
		c-2.182,0.686-4.348,0.687-6.289,0.04C212.805,109.083,213.684,108.821,214.595,108.398z M212.867,113.6v-3.12
		c0.468,0.094,0.942,0.155,1.425,0.185c0.219,0.013,0.433,0.045,0.653,0.045c0.77,0,1.555-0.089,2.344-0.252
		c0.42-0.086,0.842-0.188,1.264-0.32c5.725-1.8,10.01-7.493,10.631-13.523c0.093-0.906,0.103-1.818,0.022-2.728
		c-0.015-0.16-0.017-0.32-0.036-0.479c-0.111-0.896-0.308-1.751-0.581-2.557c-0.396-1.167-0.953-2.232-1.662-3.165
		c-0.235-0.31-0.487-0.604-0.755-0.884l3.251-1.877c0.629-0.363,1.314-0.579,2.013-0.658l-0.276,21.44l-18.093,9.303
		C212.937,114.558,212.867,114.084,212.867,113.6z M248.575,118.099l-13.958,8.059c-1.607,0.928-3.588,0.928-5.194,0l-13.958-8.059
		c-0.588-0.339-1.091-0.786-1.495-1.303l17.992-9.251l18.081,9.281C249.642,117.33,249.15,117.766,248.575,118.099z M251.171,113.6
		c0,0.498-0.076,0.983-0.211,1.448l-17.805-9.138l0.277-21.479c0.408,0.115,0.807,0.277,1.184,0.495l13.958,8.059
		c1.607,0.928,2.597,2.643,2.597,4.499V113.6z"/>
	<path fill="#FFFFFF" d="M213.969,116.795c0.404,0.518,0.907,0.964,1.495,1.303l13.958,8.059c1.606,0.928,3.587,0.928,5.194,0
		l13.958-8.059c0.575-0.333,1.067-0.769,1.468-1.273l-18.081-9.281L213.969,116.795z"/>
	<path fill="#FFFFFF" d="M248.575,92.984l-13.958-8.059c-0.377-0.217-0.775-0.379-1.184-0.495l-0.277,21.479l17.805,9.138
		c0.135-0.465,0.211-0.951,0.211-1.448V97.483C251.171,95.627,250.182,93.912,248.575,92.984z"/>
	<path fill="#FFFFFF" d="M218.251,109.185c0.586-0.185,1.15-0.426,1.701-0.693c1.514-0.734,2.883-1.759,4.057-2.994
		c2.994-3.151,4.706-7.633,4.168-11.966c-0.345-2.778-1.56-5.118-3.454-6.714l-0.864-0.341c0.791,1.316,1.242,3.029,1.242,5.072
		c0,6.615-4.703,14.16-10.506,16.851c-0.911,0.422-1.79,0.684-2.633,0.826C213.904,109.871,216.07,109.87,218.251,109.185z"/>
	<path fill="#FFFFFF" d="M231.435,84.268c-0.698,0.079-1.384,0.295-2.013,0.658l-3.251,1.877c0.268,0.28,0.52,0.574,0.755,0.884
		c0.709,0.933,1.267,1.998,1.662,3.165c0.273,0.806,0.47,1.66,0.581,2.557c0.02,0.159,0.021,0.319,0.036,0.479
		c0.08,0.909,0.07,1.821-0.022,2.728c-0.621,6.03-4.906,11.723-10.631,13.523c-0.422,0.133-0.844,0.234-1.264,0.32
		c-0.789,0.163-1.574,0.252-2.344,0.252c-0.221,0-0.435-0.032-0.653-0.045c-0.482-0.029-0.957-0.091-1.425-0.185v3.12
		c0,0.484,0.07,0.958,0.199,1.411l18.093-9.303L231.435,84.268z"/>
	<path fill="#FFFFFF" d="M222.819,92.285c0.035-3.326-1.331-5.603-3.463-6.431c0.801,1.241,3.264,6.183-2.071,13.89
		c-5.475,7.908-9.452,6.785-10.318,6.408c1.6,1.563,4.081,1.873,6.888,0.533C218.747,104.348,222.76,97.901,222.819,92.285z"/>
	<path fill="#FFDB00" d="M216.447,98.82c4.768-5.951,3.211-11.747,2.784-13.015c-1.445-0.516-3.226-0.386-5.165,0.54
		c-4.893,2.336-8.906,8.782-8.965,14.398c-0.024,2.346,0.651,4.166,1.796,5.331C208.795,106.327,210.974,105.652,216.447,98.82z
		 M208.715,96.28c1.863-4.94,6.544-8.104,10.922-8.408c0,0-5.651,1.328-9.015,8.104c-3.034,6.111-1.561,9.101-1.561,9.101
		S206.852,101.221,208.715,96.28z"/>
	<path d="M210.623,95.977c3.363-6.776,9.015-8.104,9.015-8.104c-4.378,0.303-9.059,3.467-10.922,8.408
		c-1.863,4.941,0.347,8.798,0.347,8.798S207.588,102.087,210.623,95.977z"/>
	<polygon points="40.676,82.95 25.862,121.036 10.662,81.775 0,81.775 20.963,132.418 30.833,132.418 50.727,84.357 51.795,81.775 
		41.133,81.775 	"/>
	<polygon points="162.554,100.013 159.995,103.53 156.854,99.215 144.218,81.847 133.268,81.847 133.268,95.913 133.268,132.273 
		142.777,132.273 142.777,97.244 142.777,95.606 144.111,97.431 158.841,117.578 160.714,117.578 172.811,101.449 177.139,95.678 
		177.139,102.055 177.139,132.273 186.648,132.273 186.648,103.386 186.648,81.847 175.77,81.847 	"/>
	<polygon points="96.242,81.775 85.868,81.775 82.702,88.833 63.248,132.201 73.55,132.201 77.872,122.693 81.689,113.832 
		91.055,92.365 100.419,113.832 104.237,122.693 108.487,132.201 118.861,132.201 100.528,91.329 	"/>
	<path d="M224.064,37.986c4.317-1.927,6.045-5.381,6.045-8.968c0-9.367-6.843-13.486-16.011-13.486c-7.374,0-14.747,0-22.056,0
		v33.232v2.067h1.531h7.105v-8.926h13.419c3.588,0,8.703,2.192,8.703,6.377c0,4.385-5.115,5.581-8.703,5.581h-3.833v0.033h-14.314
		l-0.011-0.015h-3.897h-11.574l3.458,8.167h17.956h11.095v-0.014c0.374,0,0.746,0,1.121,0c9.633,0,17.405-3.322,17.405-13.685
		C231.503,45.426,229.511,39.647,224.064,37.986z M214.098,34.199h-13.419V23.504h13.419c5.581,0,7.308,3.587,7.308,5.713
		C221.406,31.875,219.613,34.199,214.098,34.199z"/>
	<polygon points="92.527,15.532 83.758,15.532 83.758,62.035 124.361,62.035 128.103,53.93 92.527,53.93 	"/>
	<g>
		<path d="M150.904,57.667v-0.989h-9.621l1.798-3.813h9.685v-0.989h-9.218l1.907-4.045h18.151l6.091,13.941h10.37l-22.948-51.365
			c-0.829-1.854-3.449-1.888-4.325-0.056l-24.575,51.42h10.663l1.936-4.105H150.904z M155.348,15.508c1.215,0,2.201,0.985,2.201,2.2
			s-0.985,2.2-2.201,2.2s-2.2-0.985-2.2-2.2S154.133,15.508,155.348,15.508z M150.083,37.955v-5.132h-1.238v-2.164h10.877v2.164
			h-1.141v5.414c0.338,1.745,3.715,5.009,3.715,5.009h-15.366C150.196,39.756,150.083,37.955,150.083,37.955z"/>
		<circle cx="146.337" cy="10.374" r="2.2"/>
		<circle cx="161.531" cy="3.982" r="3.982"/>
	</g>
</g>
<g>
	<g>
		<path fill="#FFFFFF" d="M295.135,489.607c-6.052-0.721-11.237-1.944-11.237-6.339c0-3.746,3.386-6.699,10.444-6.699
			c5.476,0,10.229,2.737,11.959,5.618l7.563-3.89c-3.818-7.78-11.959-10.013-19.811-10.013c-9.292,0.072-19.521,4.322-19.521,14.695
			c0,11.31,9.509,14.047,19.81,15.271c6.699,0.721,11.67,2.665,11.67,7.42c0,5.475-5.619,7.564-11.598,7.564
			c-6.124,0-11.958-2.449-14.191-7.996l-7.924,4.105c3.746,9.221,11.67,12.391,21.971,12.391c11.238,0,21.18-4.826,21.18-16.064
			C315.45,493.642,305.652,490.904,295.135,489.607z"/>
		<path fill="none" d="M216.447,487.059c4.768-5.951,3.211-11.747,2.784-13.015c-1.445-0.517-3.226-0.386-5.165,0.54
			c-4.893,2.336-8.906,8.782-8.965,14.398c-0.024,2.346,0.651,4.165,1.796,5.331C208.795,494.565,210.974,493.891,216.447,487.059z"
			/>
		<path fill="#FFFFFF" d="M257.454,474.92l-21.818-12.597c-2.237-1.292-4.994-1.292-7.231,0l-21.819,12.597
			c-2.237,1.292-3.615,3.679-3.615,6.263v25.194c0,2.583,1.378,4.971,3.615,6.263l21.819,12.597c2.237,1.292,4.994,1.292,7.231,0
			l21.818-12.597c2.237-1.292,3.616-3.68,3.616-6.263v-25.194C261.07,478.599,259.691,476.212,257.454,474.92z M205.101,488.982
			c0.059-5.616,4.072-12.063,8.965-14.398c1.939-0.926,3.72-1.057,5.165-0.54c0.427,1.268,1.983,7.063-2.784,13.015
			c-5.473,6.832-7.651,7.507-9.55,7.255C205.752,493.147,205.077,491.328,205.101,488.982z M206.966,494.389
			c0.866,0.378,4.844,1.501,10.318-6.407c5.335-7.706,2.872-12.648,2.071-13.89c2.132,0.829,3.498,3.105,3.463,6.432
			c-0.059,5.616-4.072,12.063-8.965,14.398C211.047,496.262,208.566,495.952,206.966,494.389z M214.595,496.637
			c5.803-2.691,10.506-10.235,10.506-16.851c0-2.043-0.451-3.756-1.242-5.071l0.864,0.341c1.895,1.597,3.109,3.937,3.454,6.714
			c0.538,4.333-1.174,8.814-4.168,11.966c-1.174,1.235-2.543,2.261-4.057,2.994c-0.551,0.268-1.115,0.509-1.701,0.693
			c-2.182,0.686-4.348,0.687-6.289,0.04C212.805,497.32,213.684,497.059,214.595,496.637z M212.867,501.839v-3.12
			c0.468,0.094,0.942,0.155,1.425,0.185c0.219,0.013,0.433,0.045,0.653,0.045c0.77,0,1.555-0.089,2.344-0.252
			c0.42-0.086,0.842-0.188,1.264-0.32c5.725-1.801,10.01-7.493,10.631-13.523c0.093-0.906,0.103-1.817,0.022-2.728
			c-0.015-0.159-0.017-0.319-0.036-0.479c-0.111-0.896-0.308-1.751-0.581-2.557c-0.396-1.168-0.953-2.232-1.662-3.165
			c-0.235-0.31-0.487-0.604-0.755-0.885l3.251-1.876c0.629-0.363,1.314-0.579,2.013-0.658l-0.276,21.44l-18.093,9.303
			C212.937,502.796,212.867,502.322,212.867,501.839z M248.575,506.337l-13.958,8.059c-1.607,0.928-3.588,0.928-5.194,0
			l-13.958-8.059c-0.588-0.339-1.091-0.785-1.495-1.304l17.992-9.25l18.081,9.281C249.642,505.568,249.15,506.005,248.575,506.337z
			 M251.171,501.839c0,0.497-0.076,0.982-0.211,1.448l-17.805-9.139l0.277-21.479c0.408,0.115,0.807,0.277,1.184,0.495l13.958,8.059
			c1.607,0.928,2.597,2.643,2.597,4.498V501.839z"/>
		<path fill="#FFDB00" d="M216.447,487.059c4.768-5.951,3.211-11.747,2.784-13.015c-1.445-0.517-3.226-0.386-5.165,0.54
			c-4.893,2.336-8.906,8.782-8.965,14.398c-0.024,2.346,0.651,4.165,1.796,5.331C208.795,494.565,210.974,493.891,216.447,487.059z
			 M208.715,484.519c1.863-4.941,6.544-8.104,10.922-8.408c0,0-5.651,1.328-9.015,8.104c-3.034,6.11-1.561,9.102-1.561,9.102
			S206.852,489.459,208.715,484.519z"/>
		<polygon fill="#FFFFFF" points="40.676,471.188 25.862,509.273 10.662,470.014 0,470.014 20.963,520.656 30.833,520.656 
			50.727,472.596 51.795,470.014 41.133,470.014 		"/>
		<polygon fill="#FFFFFF" points="162.554,488.251 159.995,491.769 156.854,487.453 144.218,470.086 133.268,470.086 
			133.268,484.151 133.268,520.512 142.777,520.512 142.777,485.482 142.777,483.845 144.111,485.669 158.841,505.816 
			160.714,505.816 172.811,489.688 177.139,483.917 177.139,490.293 177.139,520.512 186.648,520.512 186.648,491.624 
			186.648,470.086 175.77,470.086 		"/>
		<polygon fill="#FFFFFF" points="96.242,470.014 85.868,470.014 82.702,477.072 63.248,520.439 73.55,520.439 77.872,510.931 
			81.689,502.07 91.055,480.603 100.419,502.07 104.237,510.931 108.487,520.439 118.861,520.439 100.528,479.567 		"/>
		<path fill="#FFFFFF" d="M224.064,426.225c4.317-1.927,6.045-5.382,6.045-8.969c0-9.367-6.843-13.486-16.011-13.486
			c-7.374,0-14.747,0-22.056,0v33.232v2.067h1.531h7.105v-8.926h13.419c3.588,0,8.703,2.192,8.703,6.378
			c0,4.385-5.115,5.58-8.703,5.58h-3.833v0.033h-14.314l-0.011-0.015h-3.897h-11.574l3.458,8.167h17.956h11.095v-0.015
			c0.374,0,0.746,0,1.121,0c9.633,0,17.405-3.321,17.405-13.685C231.503,433.665,229.511,427.886,224.064,426.225z M214.098,422.438
			h-13.419v-10.695h13.419c5.581,0,7.308,3.587,7.308,5.713C221.406,420.112,219.613,422.438,214.098,422.438z"/>
		<polygon fill="#FFFFFF" points="92.527,403.77 83.758,403.77 83.758,450.272 124.361,450.272 128.103,442.168 92.527,442.168 		
			"/>
		<path fill="#FFFFFF" d="M150.904,445.905v-0.988h-9.621l1.798-3.813h9.685v-0.989h-9.218l1.907-4.045h18.151l6.091,13.941h10.37
			l-22.948-51.364c-0.829-1.854-3.449-1.889-4.325-0.056l-24.575,51.42h10.663l1.936-4.105H150.904z M155.348,403.746
			c1.215,0,2.201,0.985,2.201,2.2s-0.985,2.2-2.201,2.2s-2.2-0.985-2.2-2.2S154.133,403.746,155.348,403.746z M150.083,426.193
			v-5.133h-1.238v-2.163h10.877v2.163h-1.141v5.414c0.338,1.745,3.715,5.01,3.715,5.01h-15.366
			C150.196,427.994,150.083,426.193,150.083,426.193z"/>
		<circle fill="#FFFFFF" cx="146.337" cy="398.611" r="2.2"/>
	</g>
	<circle fill="#FFFFFF" cx="161.531" cy="392.22" r="3.982"/>
</g>
<g>
	<path fill="#262626" d="M295.135,285.594c-6.052-0.721-11.237-1.945-11.237-6.339c0-3.746,3.386-6.7,10.444-6.7
		c5.476,0,10.229,2.737,11.959,5.619l7.563-3.89c-3.818-7.78-11.959-10.013-19.811-10.013c-9.292,0.072-19.521,4.322-19.521,14.695
		c0,11.31,9.509,14.047,19.81,15.272c6.699,0.721,11.67,2.665,11.67,7.42c0,5.475-5.619,7.564-11.598,7.564
		c-6.124,0-11.958-2.449-14.191-7.996l-7.924,4.106c3.746,9.221,11.67,12.39,21.971,12.39c11.238,0,21.18-4.826,21.18-16.064
		C315.45,289.628,305.652,286.891,295.135,285.594z"/>
	<path fill="#262626" d="M257.454,270.906l-21.818-12.597c-2.237-1.292-4.994-1.292-7.231,0l-21.819,12.597
		c-2.237,1.292-3.615,3.679-3.615,6.262v25.194c0,2.583,1.378,4.971,3.615,6.263l21.819,12.597c2.237,1.292,4.994,1.292,7.231,0
		l21.818-12.597c2.237-1.292,3.616-3.679,3.616-6.263v-25.194C261.07,274.585,259.691,272.198,257.454,270.906z M205.101,284.969
		c0.059-5.616,4.072-12.063,8.965-14.399c1.939-0.926,3.72-1.056,5.165-0.54c0.427,1.268,1.983,7.063-2.784,13.015
		c-5.473,6.832-7.651,7.506-9.55,7.254C205.752,289.134,205.077,287.314,205.101,284.969z M206.966,290.375
		c0.866,0.377,4.844,1.5,10.318-6.408c5.335-7.706,2.872-12.648,2.071-13.889c2.132,0.829,3.498,3.105,3.463,6.431
		c-0.059,5.616-4.072,12.063-8.965,14.398C211.047,292.248,208.566,291.938,206.966,290.375z M214.595,292.623
		c5.803-2.691,10.506-10.235,10.506-16.85c0-2.043-0.451-3.756-1.242-5.072l0.864,0.341c1.895,1.596,3.109,3.937,3.454,6.714
		c0.538,4.333-1.174,8.814-4.168,11.966c-1.174,1.235-2.543,2.261-4.057,2.994c-0.551,0.268-1.115,0.509-1.701,0.693
		c-2.182,0.686-4.348,0.687-6.289,0.041C212.805,293.307,213.684,293.045,214.595,292.623z M212.867,297.824v-3.119
		c0.468,0.094,0.942,0.155,1.425,0.184c0.219,0.013,0.433,0.045,0.653,0.045c0.77,0,1.555-0.089,2.344-0.251
		c0.42-0.086,0.842-0.188,1.264-0.321c5.725-1.8,10.01-7.492,10.631-13.523c0.093-0.906,0.103-1.818,0.022-2.728
		c-0.015-0.16-0.017-0.32-0.036-0.479c-0.111-0.896-0.308-1.75-0.581-2.557c-0.396-1.167-0.953-2.232-1.662-3.165
		c-0.235-0.31-0.487-0.604-0.755-0.884l3.251-1.876c0.629-0.363,1.314-0.579,2.013-0.658l-0.276,21.441l-18.093,9.303
		C212.937,298.782,212.867,298.309,212.867,297.824z M248.575,302.323l-13.958,8.059c-1.607,0.928-3.588,0.928-5.194,0
		l-13.958-8.059c-0.588-0.339-1.091-0.786-1.495-1.304l17.992-9.25l18.081,9.281C249.642,301.554,249.15,301.991,248.575,302.323z
		 M251.171,297.824c0,0.498-0.076,0.983-0.211,1.449l-17.805-9.139l0.277-21.479c0.408,0.116,0.807,0.277,1.184,0.495l13.958,8.059
		c1.607,0.928,2.597,2.643,2.597,4.499V297.824z"/>
	<path fill="#FFFFFF" d="M213.969,301.02c0.404,0.518,0.907,0.964,1.495,1.304l13.958,8.059c1.606,0.928,3.587,0.928,5.194,0
		l13.958-8.059c0.575-0.333,1.067-0.769,1.468-1.273l-18.081-9.281L213.969,301.02z"/>
	<path fill="#FFFFFF" d="M248.575,277.208l-13.958-8.059c-0.377-0.218-0.775-0.379-1.184-0.495l-0.277,21.479l17.805,9.139
		c0.135-0.465,0.211-0.951,0.211-1.449v-16.117C251.171,279.851,250.182,278.136,248.575,277.208z"/>
	<path fill="#FFFFFF" d="M218.251,293.409c0.586-0.185,1.15-0.426,1.701-0.693c1.514-0.733,2.883-1.759,4.057-2.994
		c2.994-3.151,4.706-7.633,4.168-11.966c-0.345-2.777-1.56-5.118-3.454-6.714l-0.864-0.341c0.791,1.316,1.242,3.029,1.242,5.072
		c0,6.615-4.703,14.159-10.506,16.85c-0.911,0.422-1.79,0.684-2.633,0.827C213.904,294.096,216.07,294.094,218.251,293.409z"/>
	<path fill="#FFFFFF" d="M231.435,268.492c-0.698,0.079-1.384,0.295-2.013,0.658l-3.251,1.876c0.268,0.28,0.52,0.575,0.755,0.884
		c0.709,0.933,1.267,1.998,1.662,3.165c0.273,0.806,0.47,1.661,0.581,2.557c0.02,0.159,0.021,0.319,0.036,0.479
		c0.08,0.91,0.07,1.821-0.022,2.728c-0.621,6.031-4.906,11.723-10.631,13.523c-0.422,0.133-0.844,0.234-1.264,0.321
		c-0.789,0.162-1.574,0.251-2.344,0.251c-0.221,0-0.435-0.032-0.653-0.045c-0.482-0.029-0.957-0.09-1.425-0.184v3.119
		c0,0.484,0.07,0.958,0.199,1.411l18.093-9.303L231.435,268.492z"/>
	<path fill="#FFFFFF" d="M222.819,276.509c0.035-3.326-1.331-5.603-3.463-6.431c0.801,1.241,3.264,6.183-2.071,13.889
		c-5.475,7.908-9.452,6.785-10.318,6.408c1.6,1.563,4.081,1.873,6.888,0.533C218.747,288.572,222.76,282.125,222.819,276.509z"/>
	<path fill="#FFDB00" d="M216.447,283.045c4.768-5.952,3.211-11.747,2.784-13.015c-1.445-0.517-3.226-0.386-5.165,0.54
		c-4.893,2.336-8.906,8.783-8.965,14.399c-0.024,2.345,0.651,4.165,1.796,5.331C208.795,290.551,210.974,289.876,216.447,283.045z
		 M208.715,280.504c1.863-4.941,6.544-8.105,10.922-8.408c0,0-5.651,1.329-9.015,8.104c-3.034,6.111-1.561,9.102-1.561,9.102
		S206.852,285.445,208.715,280.504z"/>
	<path fill="#262626" d="M210.623,280.201c3.363-6.776,9.015-8.104,9.015-8.104c-4.378,0.303-9.059,3.467-10.922,8.408
		c-1.863,4.94,0.347,8.798,0.347,8.798S207.588,286.312,210.623,280.201z"/>
	<polygon fill="#262626" points="25.862,305.26 10.662,266 0,266 20.963,316.642 30.833,316.642 50.727,268.582 40.676,267.174 	"/>
	<polygon fill="#262626" points="177.139,316.498 186.648,316.498 186.648,287.61 177.139,286.279 	"/>
	<polygon fill="#262626" points="159.995,287.755 156.854,283.439 144.111,281.655 158.841,301.802 160.714,301.802 
		172.811,285.673 162.554,284.237 	"/>
	<polygon fill="#262626" points="133.268,316.498 142.777,316.498 142.777,281.469 133.268,280.137 	"/>
	<polygon fill="#262626" points="82.702,273.058 63.248,316.426 73.55,316.426 77.872,306.917 81.689,298.057 91.055,276.589 
		100.419,298.057 104.237,306.917 108.487,316.426 118.861,316.426 100.528,275.554 	"/>
	<polygon fill="#FFDB00" points="40.676,267.174 50.727,268.582 51.795,266 41.133,266 	"/>
	<polygon fill="#FFDB00" points="144.218,266.072 133.268,266.072 133.268,280.137 142.777,281.469 142.777,279.831 
		144.111,281.655 156.854,283.439 	"/>
	<polygon fill="#FFDB00" points="162.554,284.237 172.811,285.673 177.139,279.903 177.139,286.279 186.648,287.61 186.648,266.072 
		175.77,266.072 	"/>
	<polygon fill="#FFDB00" points="96.242,266 85.868,266 82.702,273.058 100.528,275.554 	"/>
	<path fill="none" d="M214.098,207.729h-13.419v10.695h13.419c5.515,0,7.308-2.325,7.308-4.982
		C221.406,211.315,219.679,207.729,214.098,207.729z"/>
	<path fill="#262626" d="M224.064,222.21c4.317-1.927,6.045-5.381,6.045-8.968c0-9.367-6.843-13.486-16.011-13.486
		c-7.374,0-14.747,0-22.056,0v33.232v2.067h1.531h7.105v-8.925h13.419c3.588,0,8.703,2.192,8.703,6.377
		c0,4.385-5.115,5.58-8.703,5.58h-3.833v0.034h-14.314l5.921,8.138l0.011,0.015h11.095v-0.015c0.374,0,0.746,0,1.121,0
		c9.633,0,17.405-3.321,17.405-13.685C231.503,229.651,229.511,223.872,224.064,222.21z M214.098,218.423h-13.419v-10.695h13.419
		c5.581,0,7.308,3.587,7.308,5.713C221.406,216.099,219.613,218.423,214.098,218.423z"/>
	<polygon fill="#FFDB00" points="92.527,199.756 83.758,199.756 83.758,246.259 124.384,246.259 128.103,238.154 92.527,238.154 	
		"/>
	<polygon fill="#FFDB00" points="195.951,238.121 195.94,238.106 192.042,238.106 180.468,238.106 183.926,246.273 201.882,246.273 
		201.872,246.259 	"/>
	<g>
		<path fill="#FFDB00" d="M151.115,242.232v-0.989h-9.62l1.797-3.813h9.685v-0.989h-9.218l1.907-4.045h18.15l6.091,13.941h10.37
			l-22.948-51.365c-0.829-1.854-3.449-1.888-4.324-0.056l-24.575,51.42h10.663l1.936-4.105H151.115z M155.559,200.072
			c1.215,0,2.201,0.985,2.201,2.201s-0.985,2.2-2.201,2.2c-1.215,0-2.2-0.985-2.2-2.2S154.344,200.072,155.559,200.072z
			 M150.294,222.52v-5.132h-1.238v-2.164h10.878v2.164h-1.142v5.414c0.338,1.745,3.715,5.009,3.715,5.009h-15.366
			C150.407,224.321,150.294,222.52,150.294,222.52z"/>
		<circle fill="#FFDB00" cx="146.548" cy="194.938" r="2.2"/>
		<circle fill="#FFDB00" cx="161.741" cy="188.547" r="3.982"/>
	</g>
</g>
<path fill="#FFFFFF" d="M295.135,694.725c-6.052-0.721-11.237-1.945-11.237-6.34c0-3.746,3.386-6.699,10.444-6.699
	c5.476,0,10.229,2.737,11.959,5.618l7.563-3.89c-3.818-7.78-11.959-10.014-19.811-10.014c-9.292,0.072-19.521,4.323-19.521,14.696
	c0,11.31,9.509,14.047,19.81,15.271c6.699,0.721,11.67,2.665,11.67,7.42c0,5.475-5.619,7.564-11.598,7.564
	c-6.124,0-11.958-2.449-14.191-7.996l-7.924,4.105c3.746,9.221,11.67,12.391,21.971,12.391c11.238,0,21.18-4.826,21.18-16.064
	C315.45,698.758,305.652,696.021,295.135,694.725z"/>
<path fill="#FFFFFF" d="M257.454,680.036l-21.818-12.598c-2.237-1.291-4.994-1.291-7.231,0l-21.819,12.598
	c-2.237,1.292-3.615,3.679-3.615,6.263v25.194c0,2.583,1.378,4.971,3.615,6.262l21.819,12.598c2.237,1.292,4.994,1.292,7.231,0
	l21.818-12.598c2.237-1.291,3.616-3.679,3.616-6.262v-25.194C261.07,683.715,259.691,681.328,257.454,680.036z M205.101,694.099
	c0.059-5.616,4.072-12.063,8.965-14.398c1.939-0.926,3.72-1.057,5.165-0.54c0.427,1.268,1.983,7.063-2.784,13.015
	c-5.473,6.832-7.651,7.507-9.55,7.255C205.752,698.264,205.077,696.444,205.101,694.099z M206.966,699.505
	c0.866,0.378,4.844,1.501,10.318-6.407c5.335-7.707,2.872-12.648,2.071-13.89c2.132,0.829,3.498,3.105,3.463,6.432
	c-0.059,5.616-4.072,12.063-8.965,14.398C211.047,701.378,208.566,701.068,206.966,699.505z M214.595,701.753
	c5.803-2.691,10.506-10.235,10.506-16.851c0-2.043-0.451-3.756-1.242-5.072l0.864,0.342c1.895,1.596,3.109,3.936,3.454,6.714
	c0.538,4.333-1.174,8.814-4.168,11.966c-1.174,1.235-2.543,2.261-4.057,2.994c-0.551,0.268-1.115,0.509-1.701,0.693
	c-2.182,0.686-4.348,0.687-6.289,0.04C212.805,702.437,213.684,702.175,214.595,701.753z M212.867,706.954v-3.119
	c0.468,0.094,0.942,0.155,1.425,0.185c0.219,0.013,0.433,0.045,0.653,0.045c0.77,0,1.555-0.09,2.344-0.252
	c0.42-0.087,0.842-0.188,1.264-0.32c5.725-1.801,10.01-7.492,10.631-13.523c0.093-0.906,0.103-1.817,0.022-2.728
	c-0.015-0.159-0.017-0.319-0.036-0.479c-0.111-0.896-0.308-1.751-0.581-2.557c-0.396-1.168-0.953-2.232-1.662-3.165
	c-0.235-0.31-0.487-0.604-0.755-0.885l3.251-1.876c0.629-0.363,1.314-0.579,2.013-0.658l-0.276,21.44l-18.093,9.303
	C212.937,707.912,212.867,707.438,212.867,706.954z M248.575,711.453l-13.958,8.059c-1.607,0.928-3.588,0.928-5.194,0l-13.958-8.059
	c-0.588-0.339-1.091-0.785-1.495-1.304l17.992-9.251l18.081,9.281C249.642,710.685,249.15,711.121,248.575,711.453z
	 M251.171,706.954c0,0.498-0.076,0.983-0.211,1.449l-17.805-9.139l0.277-21.479c0.408,0.115,0.807,0.277,1.184,0.495l13.958,8.059
	c1.607,0.928,2.597,2.643,2.597,4.498V706.954z"/>
<path fill="#FFDB00" d="M216.447,692.175c4.768-5.951,3.211-11.747,2.784-13.015c-1.445-0.517-3.226-0.386-5.165,0.54
	c-4.893,2.336-8.906,8.782-8.965,14.398c-0.024,2.346,0.651,4.165,1.796,5.331C208.795,699.682,210.974,699.007,216.447,692.175z
	 M208.715,689.634c1.863-4.94,6.544-8.104,10.922-8.407c0,0-5.651,1.328-9.015,8.104c-3.034,6.11-1.561,9.102-1.561,9.102
	S206.852,694.575,208.715,689.634z"/>
<polygon fill="#FFFFFF" points="25.862,714.39 10.662,675.13 0,675.13 20.963,725.772 30.833,725.772 50.727,677.712 
	40.676,676.305 "/>
<polygon fill="#FFFFFF" points="177.139,725.628 186.648,725.628 186.648,696.74 177.139,695.409 "/>
<polygon fill="#FFFFFF" points="159.995,696.885 156.854,692.569 144.111,690.785 158.841,710.933 160.714,710.933 172.811,694.804 
	162.554,693.367 "/>
<polygon fill="#FFFFFF" points="133.268,725.628 142.777,725.628 142.777,690.599 133.268,689.268 "/>
<polygon fill="#FFFFFF" points="82.702,682.188 63.248,725.556 73.55,725.556 77.872,716.047 81.689,707.187 91.055,685.719 
	100.419,707.187 104.237,716.047 108.487,725.556 118.861,725.556 100.528,684.684 "/>
<polygon fill="#FFDB00" points="40.676,676.305 50.727,677.712 51.795,675.13 41.133,675.13 "/>
<polygon fill="#FFDB00" points="144.218,675.202 133.268,675.202 133.268,689.268 142.777,690.599 142.777,688.961 144.111,690.785 
	156.854,692.569 "/>
<polygon fill="#FFDB00" points="162.554,693.367 172.811,694.804 177.139,689.033 177.139,695.409 186.648,696.74 186.648,675.202 
	175.77,675.202 "/>
<polygon fill="#FFDB00" points="96.242,675.13 85.868,675.13 82.702,682.188 100.528,684.684 "/>
<path fill="none" d="M214.098,616.858h-13.419v10.695h13.419c5.515,0,7.308-2.325,7.308-4.982
	C221.406,620.445,219.679,616.858,214.098,616.858z"/>
<path fill="#FFFFFF" d="M224.064,631.341c4.317-1.927,6.045-5.382,6.045-8.969c0-9.367-6.843-13.486-16.011-13.486
	c-7.374,0-14.747,0-22.056,0v33.232v2.067h1.531h7.105v-8.926h13.419c3.588,0,8.703,2.192,8.703,6.378
	c0,4.385-5.115,5.58-8.703,5.58h-3.833v0.033h-14.314l5.921,8.138l0.011,0.015h11.095v-0.015c0.374,0,0.746,0,1.121,0
	c9.633,0,17.405-3.321,17.405-13.685C231.503,638.781,229.511,633.002,224.064,631.341z M214.098,627.554h-13.419v-10.695h13.419
	c5.581,0,7.308,3.587,7.308,5.713C221.406,625.229,219.613,627.554,214.098,627.554z"/>
<polygon fill="#FFDB00" points="92.527,608.886 83.758,608.886 83.758,655.389 124.384,655.389 128.103,647.284 92.527,647.284 "/>
<polygon fill="#FFDB00" points="195.951,647.251 195.94,647.236 192.042,647.236 180.468,647.236 183.926,655.403 201.882,655.403 
	201.872,655.389 "/>
<path fill="#FFDB00" d="M151.115,651.362v-0.989h-9.62l1.797-3.813h9.685v-0.989h-9.218l1.907-4.045h18.15l6.091,13.941h10.37
	l-22.948-51.365c-0.829-1.854-3.449-1.888-4.324-0.056l-24.575,51.421h10.663l1.936-4.105H151.115z M155.559,609.203
	c1.215,0,2.201,0.984,2.201,2.2c0,1.215-0.985,2.2-2.201,2.2c-1.215,0-2.2-0.985-2.2-2.2
	C153.359,610.188,154.344,609.203,155.559,609.203z M150.294,631.649v-5.132h-1.238v-2.163h10.878v2.163h-1.142v5.414
	c0.338,1.744,3.715,5.009,3.715,5.009h-15.366C150.407,633.451,150.294,631.649,150.294,631.649z"/>
<circle fill="#FFDB00" cx="146.548" cy="604.068" r="2.2"/>
<circle fill="#FFDB00" cx="161.741" cy="597.677" r="3.982"/>
</svg>
