<svg xmlns="http://www.w3.org/2000/svg" width="300" height="28" viewBox="0 0 300 27.9"><style>.a{fill:#FFF;}</style><polygon points="8 27.9 0 27.9 19.1 0 28.7 0 28.7 27.8 21.4 27.8 22.3 6 " class="a"/><path d="M61.6 19.1c-0.4 2.3-1.5 4.3-3.4 5.9 -1.8 1.6-4 2.4-6.4 2.4H33l0.8-4.8h15.6c1 0 2-0.2 2.8-0.7 0.9-0.6 1.5-1.3 1.6-2.3 0.4-2.3-1-3.4-4.2-3.4h-7.9c-2.3 0-4.1-0.7-5.6-2.1 -1.5-1.4-2-3.2-1.6-5.3 0.4-2.4 1.6-4.3 3.5-5.8 1.9-1.5 4.3-2.2 7-2.2h18.1l-0.8 4.6H46.3c-0.7 0-1.5 0.3-2.3 0.9 -0.8 0.6-1.3 1.3-1.5 2.1 -0.2 0.9 0.1 1.7 0.6 2.3 0.6 0.6 1.4 0.9 2.4 0.9h8.7c2.7 0 4.7 0.7 6 2.1C61.6 15 62 16.8 61.6 19.1z" class="a"/><path d="M77.7 11.8h-5.2l-1.6 9c-0.1 0.8 0 1.5 0.5 2 0.5 0.5 1.3 0.8 2.4 0.8h1.6l-0.7 3.9h-4.9c-1.5 0-2.6-0.5-3.5-1.6 -0.5-0.6-0.8-1.3-0.8-2.1 0-0.8 0-1.7 0.2-2.7l1.6-9.3h-3.4l0.7-4.1h3.4l1.2-6.9h5.2l-1.2 6.9h5.2L77.7 11.8z" class="a"/><path d="M91.7 11.9h-5.9L83 27.5h-5.3l3.5-19.8h5.3l-0.5 2.8c0.4-0.7 0.8-1.2 1.3-1.7 0.5-0.4 1.1-0.8 1.8-1 0.3-0.1 0.7-0.2 1-0.3 0.4-0.1 0.7-0.1 1.1-0.1 0.4 0 0.8 0.1 1.2 0.2L91.7 11.9z" class="a"/><path d="M110.2 27.5h-10.2c-1.9 0-3.2-0.1-3.9-0.3 -1.2-0.3-2.1-1-2.7-2 -0.7-1.2-0.9-2.5-0.6-4L95.2 7.6h5.3l-2.3 13.1c-0.1 0.6 0.1 1.2 0.6 1.6 0.5 0.5 1 0.7 1.7 0.7h5.2l2.7-15.4h5.3L110.2 27.5z" class="a"/><path d="M128.6 11.8h-5.2l-1.6 9c-0.1 0.8 0 1.5 0.5 2 0.5 0.5 1.3 0.8 2.4 0.8h1.6l-0.7 3.9h-4.9c-1.5 0-2.6-0.5-3.5-1.6 -0.5-0.6-0.8-1.3-0.8-2.1 0-0.8 0-1.7 0.2-2.7l1.6-9.3h-3.4l0.7-4.1h3.4l1.2-6.9h5.2l-1.2 6.9h5.2L128.6 11.8z" class="a"/><path d="M156.4 5.3h-10l-3.9 22.3h-6.2l3.9-22.3h-9.8l0.8-4.5h26L156.4 5.3z" class="a"/><path d="M163.6 5.4h-5.3l0.8-4.7h5.3L163.6 5.4zM159.8 27.5h-5.3l3.5-19.8h5.3L159.8 27.5z" class="a"/><path d="M180.6 27.6h-9.3c-2.3 0-4.1-1-5.4-2.9s-1.8-4.2-1.3-6.7c0.5-2.8 1.8-5.2 4-7.2 2.2-2 4.4-3 6.6-3h8.9l-0.7 4.1h-6.5c-0.8 0-1.5 0.1-2.1 0.2 -0.6 0.1-1.2 0.4-1.7 0.8 -1 0.8-1.7 1.8-1.9 3.1h11.5l-0.7 4.1h-11.5c-0.1 0.6-0.1 1.1-0.1 1.5s0.3 0.8 0.6 1.3c0.4 0.4 0.8 0.7 1.4 0.8 0.6 0.1 1.3 0.2 2.2 0.2h6.7L180.6 27.6z" class="a"/><path d="M227.8 9.1c-0.4 2.5-1.8 4.4-4.1 5.6 -2 1.1-4.5 1.7-7.5 1.7h-7.2c-0.8 0-1.4 0.1-1.9 0.2 -0.5 0.2-1 0.5-1.6 1 -0.9 0.8-1.4 1.7-1.6 2.7l-0.4 2.4H224.6l-0.8 4.7h-28.5l1.2-6.7c0.3-1.7 0.7-3 1.1-3.9 0.6-1.2 1.5-2.3 2.7-3.2 1.2-0.9 2.3-1.4 3.4-1.6 1.1-0.2 2.5-0.3 4.3-0.3h6.9c1.2 0 2.2-0.2 3-0.6 1-0.5 1.6-1.3 1.8-2.3 0.2-1-0.1-1.9-0.9-2.4 -0.8-0.6-1.8-0.9-2.9-0.9h-16.3l0.8-4.8h20.3c2.9 0 5 0.8 6.2 2.5C227.9 4.7 228.2 6.7 227.8 9.1z" class="a"/><path d="M259.1 14c-0.9 5.2-3 8.9-6.3 11.2 -2.7 1.8-6.2 2.7-10.7 2.7 -5 0-8.5-1-10.5-3.1 -2.2-2.3-2.8-6-1.9-11.1 0.7-4.2 2.5-7.4 5.2-9.7 3-2.5 7-3.8 12-3.8 5.5 0 9.2 1.2 11.1 3.6C259.5 6 259.9 9.4 259.1 14zM252.3 13.9c0.5-2.6 0.2-4.7-0.8-6.3C250.4 5.9 248.5 5 245.7 5c-2.7 0-4.9 0.9-6.6 2.8 -1.4 1.6-2.4 3.6-2.8 6.1 -0.5 2.9-0.4 5 0.3 6.4 0.9 1.9 3.1 2.9 6.6 2.9 2.9 0 5.1-0.9 6.6-2.8C250.9 18.9 251.8 16.8 252.3 13.9z" class="a"/><path d="M266.8 27.5h-7.2l4.7-26.7h7.2L266.8 27.5z" class="a"/><path d="M299.1 5.6L277.2 27.5h-7.7L292 5.5h-18.5l0.8-4.8H300L299.1 5.6z" class="a"/></svg>