<?xml version="1.0" encoding="utf-8"?>
<!-- Generator: Adobe Illustrator 16.0.0, SVG Export Plug-In . SVG Version: 6.00 Build 0)  -->
<!DOCTYPE svg PUBLIC "-//W3C//DTD SVG 1.1//EN" "http://www.w3.org/Graphics/SVG/1.1/DTD/svg11.dtd">
<svg version="1.1" id="레이어_1" xmlns="http://www.w3.org/2000/svg" xmlns:xlink="http://www.w3.org/1999/xlink" x="0px"
	 y="0px" width="350px" height="350px" viewBox="0 0 350 350" enable-background="new 0 0 350 350" xml:space="preserve">
<polygon fill="#FFFFFF" stroke="#040000" stroke-width="3" stroke-linecap="round" stroke-linejoin="round" stroke-miterlimit="10" points="
	2.584,61.359 52.844,80.16 52.836,213.946 2.575,233.926 "/>
<rect x="52.833" y="80" fill="#FFFFFF" stroke="#040000" stroke-width="3" stroke-linecap="round" stroke-linejoin="round" stroke-miterlimit="10" width="245.452" height="135.037"/>
<polygon fill="#FFFFFF" stroke="#040000" stroke-width="3" stroke-linecap="round" stroke-linejoin="round" stroke-miterlimit="10" points="
	18.338,307.236 52.829,215.028 298.28,215.045 334.938,307.257 "/>
<line fill="none" stroke="#040000" stroke-width="2" stroke-linecap="round" stroke-linejoin="round" stroke-miterlimit="10" x1="58.11" y1="214.88" x2="293.001" y2="214.894"/>
<rect x="18.338" y="307.236" fill="#FFFFFF" stroke="#040000" stroke-width="3" stroke-linecap="round" stroke-linejoin="round" stroke-miterlimit="10" width="316.601" height="17.294"/>
<g>
	
		<polyline fill="#FFFFFF" stroke="#040000" stroke-width="3" stroke-linecap="round" stroke-linejoin="round" stroke-miterlimit="10" points="
		146.325,226.075 174.373,246.338 174.373,213.813 174.373,181.291 146.325,201.552 	"/>
	
		<circle fill="#F4E55F" stroke="#040000" stroke-width="3" stroke-linecap="round" stroke-linejoin="round" stroke-miterlimit="10" cx="129.763" cy="163.696" r="20.793"/>
	
		<rect x="71.648" y="184.49" fill="#FFFFFF" stroke="#040000" stroke-width="3" stroke-linecap="round" stroke-linejoin="round" stroke-miterlimit="10" width="74.643" height="58.647"/>
	
		<circle fill="#F4E55F" stroke="#040000" stroke-width="3" stroke-linecap="round" stroke-linejoin="round" stroke-miterlimit="10" cx="88.176" cy="163.696" r="20.794"/>
	
		<circle fill="#FFFFFF" stroke="#040000" stroke-width="3" stroke-linecap="round" stroke-linejoin="round" stroke-miterlimit="10" cx="88.176" cy="163.696" r="11.594"/>
	
		<circle fill="#FFFFFF" stroke="#040000" stroke-width="3" stroke-linecap="round" stroke-linejoin="round" stroke-miterlimit="10" cx="129.763" cy="163.696" r="11.595"/>
	
		<polyline fill="none" stroke="#040000" stroke-width="3" stroke-linecap="round" stroke-linejoin="round" stroke-miterlimit="10" points="
		108.97,286.856 108.97,243.138 68.45,283.657 	"/>
	
		<line fill="none" stroke="#040000" stroke-width="3" stroke-linecap="round" stroke-linejoin="round" stroke-miterlimit="10" x1="108.97" y1="243.138" x2="149.49" y2="283.657"/>
</g>
<polygon fill="#FFFFFF" stroke="#040000" stroke-width="3" stroke-linecap="round" stroke-linejoin="round" stroke-miterlimit="10" points="
	348.378,232.901 298.117,214.102 298.126,80.314 348.388,60.333 "/>
<text transform="matrix(1 0 0 1 154.8291 137.0459)" font-family="'Roboto-Bold'" font-size="30.7962">Screen-X</text>
</svg>
