<?xml version="1.0" encoding="utf-8"?>
<!-- Generator: Adobe Illustrator 16.0.0, SVG Export Plug-In . SVG Version: 6.00 Build 0)  -->
<!DOCTYPE svg PUBLIC "-//W3C//DTD SVG 1.1//EN" "http://www.w3.org/Graphics/SVG/1.1/DTD/svg11.dtd">
<svg version="1.1" id="레이어_1" xmlns="http://www.w3.org/2000/svg" xmlns:xlink="http://www.w3.org/1999/xlink" x="0px"
	 y="0px" width="350px" height="350px" viewBox="0 0 350 350" enable-background="new 0 0 350 350" xml:space="preserve">
<rect x="4.245" y="39.668" fill="#FFFFFF" stroke="#040000" stroke-width="3" stroke-linecap="round" stroke-linejoin="round" stroke-miterlimit="10" width="340.755" height="271.357"/>
<line fill="none" stroke="#040000" stroke-width="3" stroke-linecap="round" stroke-linejoin="round" stroke-miterlimit="10" x1="27.949" y1="268.166" x2="321.297" y2="268.166"/>
<circle fill="#F4E55F" stroke="#040000" stroke-width="3" stroke-linecap="round" stroke-linejoin="round" stroke-miterlimit="10" cx="73.537" cy="268.166" r="17.381"/>
<circle fill="#FFFFFF" stroke="#040000" stroke-width="3" stroke-linecap="round" stroke-linejoin="round" stroke-miterlimit="10" cx="173.97" cy="120.458" r="30.626"/>
<path fill="#FFFFFF" stroke="#040000" stroke-width="3" stroke-linecap="round" stroke-linejoin="round" stroke-miterlimit="10" d="
	M232.346,222.271c0-32.24-21.209-71.186-58.377-71.186c-35.78,0-58.377,38.945-58.377,71.186H232.346z"/>
<circle fill="#F4E55F" stroke="#040000" stroke-width="3" stroke-linecap="round" stroke-linejoin="round" stroke-miterlimit="10" cx="212.762" cy="206.354" r="35.275"/>
<polygon fill="#FFFFFF" stroke="#040000" stroke-width="3" stroke-linecap="round" stroke-linejoin="round" stroke-miterlimit="10" points="
	233.729,205.197 200.568,186.053 200.568,224.343 "/>
<g>
	
		<path fill="#FFFFFF" stroke="#040000" stroke-width="3" stroke-linecap="round" stroke-linejoin="round" stroke-miterlimit="10" d="
		M285.973,57.725c-23.852-4.833-47.106,10.585-51.939,34.438c-2.719,13.421,0.974,26.654,8.973,36.521l-13.62,22.4l22.12-14.389
		c4.918,3.539,10.641,6.125,16.965,7.407c23.854,4.833,47.107-10.585,51.939-34.438C325.244,85.813,309.826,62.558,285.973,57.725z"
		/>
	<g>
		<circle fill="#040000" cx="261.492" cy="103.113" r="4.266"/>
		<circle fill="#040000" cx="278.156" cy="103.113" r="4.266"/>
		<circle fill="#040000" cx="294.819" cy="103.113" r="4.266"/>
	</g>
</g>
<g>
	
		<line fill="none" stroke="#040000" stroke-width="3" stroke-linecap="round" stroke-linejoin="round" stroke-miterlimit="10" x1="47.43" y1="109.514" x2="47.43" y2="192.656"/>
	
		<line fill="none" stroke="#040000" stroke-width="3" stroke-linecap="round" stroke-linejoin="round" stroke-miterlimit="10" x1="73.538" y1="109.514" x2="73.538" y2="192.656"/>
	
		<line fill="none" stroke="#040000" stroke-width="3" stroke-linecap="round" stroke-linejoin="round" stroke-miterlimit="10" x1="99.645" y1="109.514" x2="99.645" y2="192.656"/>
	
		<circle fill="#F4E55F" stroke="#040000" stroke-width="3" stroke-linecap="round" stroke-linejoin="round" stroke-miterlimit="10" cx="47.43" cy="167.754" r="8.435"/>
	
		<circle fill="#F4E55F" stroke="#040000" stroke-width="3" stroke-linecap="round" stroke-linejoin="round" stroke-miterlimit="10" cx="73.538" cy="128.077" r="8.435"/>
	
		<circle fill="#F4E55F" stroke="#040000" stroke-width="3" stroke-linecap="round" stroke-linejoin="round" stroke-miterlimit="10" cx="99.645" cy="155.16" r="8.435"/>
</g>
</svg>
