<?xml version="1.0" encoding="utf-8"?>
<!-- Generator: Adobe Illustrator 16.0.0, SVG Export Plug-In . SVG Version: 6.00 Build 0)  -->
<!DOCTYPE svg PUBLIC "-//W3C//DTD SVG 1.1//EN" "http://www.w3.org/Graphics/SVG/1.1/DTD/svg11.dtd">
<svg version="1.1" id="레이어_1" xmlns="http://www.w3.org/2000/svg" xmlns:xlink="http://www.w3.org/1999/xlink" x="0px"
	 y="0px" width="350px" height="350px" viewBox="0 0 350 350" enable-background="new 0 0 350 350" xml:space="preserve">
<rect x="5.317" y="62.412" fill="#F4E55F" stroke="#040000" stroke-width="3" stroke-linecap="round" stroke-linejoin="round" stroke-miterlimit="10" width="339.367" height="23.243"/>
<rect x="12.667" y="85.655" fill="#F4E55F" stroke="#040000" stroke-width="3" stroke-linecap="round" stroke-linejoin="round" stroke-miterlimit="10" width="324.441" height="200.675"/>
<rect x="31.253" y="85.655" fill="#FFFFFF" stroke="#040000" stroke-width="3" stroke-linecap="round" stroke-linejoin="round" stroke-miterlimit="10" width="288.08" height="200.675"/>
<line fill="none" stroke="#040000" stroke-width="3" stroke-linecap="round" stroke-linejoin="round" stroke-miterlimit="10" x1="5.317" y1="286.33" x2="344.684" y2="286.33"/>
<g>
	
		<circle fill="#FFFFFF" stroke="#040000" stroke-width="3" stroke-linecap="round" stroke-linejoin="round" stroke-miterlimit="10" cx="283.55" cy="248.995" r="53.557"/>
	
		<circle fill="#FFFFFF" stroke="#040000" stroke-width="3" stroke-linecap="round" stroke-linejoin="round" stroke-miterlimit="10" cx="283.551" cy="248.995" r="9.718"/>
	<circle fill="#F4E55F" cx="253.832" cy="248.995" r="13.432"/>
	<circle fill="#F4E55F" cx="314.012" cy="248.995" r="13.432"/>
	<circle fill="#F4E55F" cx="283.551" cy="218.904" r="13.432"/>
	<circle fill="#F4E55F" cx="283.551" cy="278.713" r="13.432"/>
</g>
<g>
	
		<polyline fill="none" stroke="#040000" stroke-width="3" stroke-linecap="round" stroke-linejoin="round" stroke-miterlimit="10" points="
		179.308,317.236 179.308,266.965 132.712,313.558 	"/>
	<g>
		
			<polyline fill="#FFFFFF" stroke="#040000" stroke-width="3" stroke-linecap="round" stroke-linejoin="round" stroke-miterlimit="10" points="
			222.263,247.345 254.515,270.643 254.515,233.244 254.515,195.847 222.263,219.143 		"/>
		
			<circle fill="#F4E55F" stroke="#040000" stroke-width="3" stroke-linecap="round" stroke-linejoin="round" stroke-miterlimit="10" cx="203.217" cy="175.615" r="23.91"/>
		
			<rect x="136.391" y="199.525" fill="#FFFFFF" stroke="#040000" stroke-width="3" stroke-linecap="round" stroke-linejoin="round" stroke-miterlimit="10" width="85.832" height="67.439"/>
		
			<circle fill="#F4E55F" stroke="#040000" stroke-width="3" stroke-linecap="round" stroke-linejoin="round" stroke-miterlimit="10" cx="155.397" cy="175.615" r="23.911"/>
		
			<circle fill="#FFFFFF" stroke="#040000" stroke-width="3" stroke-linecap="round" stroke-linejoin="round" stroke-miterlimit="10" cx="155.396" cy="175.615" r="13.332"/>
		
			<circle fill="#FFFFFF" stroke="#040000" stroke-width="3" stroke-linecap="round" stroke-linejoin="round" stroke-miterlimit="10" cx="203.217" cy="175.615" r="13.332"/>
		
			<line fill="none" stroke="#040000" stroke-width="3" stroke-linecap="round" stroke-linejoin="round" stroke-miterlimit="10" x1="179.308" y1="266.965" x2="225.901" y2="313.558"/>
	</g>
</g>
<g>
	<g>
		<g>
			
				<rect x="25.743" y="249.83" fill="#F4E55F" stroke="#040000" stroke-width="3" stroke-linecap="round" stroke-linejoin="round" stroke-miterlimit="10" width="104.704" height="12.514"/>
		</g>
		<g>
			
				<polygon fill="#F4E55F" stroke="#040000" stroke-width="3" stroke-linecap="round" stroke-linejoin="round" stroke-miterlimit="10" points="
				119.189,203.825 24.432,237.838 31.402,249.163 126.16,215.148 			"/>
		</g>
		<g>
			
				<rect x="31.253" y="262.344" fill="#FFFFFF" stroke="#040000" stroke-width="3" stroke-linecap="round" stroke-linejoin="round" stroke-miterlimit="10" width="93.685" height="51.077"/>
		</g>
	</g>
</g>
<g>
	
		<rect x="83.041" y="62.412" fill="#F4E55F" stroke="#040000" stroke-width="3" stroke-linecap="round" stroke-linejoin="round" stroke-miterlimit="10" width="28.292" height="7.209"/>
	
		<polyline fill="#FFFFFF" stroke="#040000" stroke-width="3" stroke-linecap="round" stroke-linejoin="round" stroke-miterlimit="10" points="
		120.213,110.495 108.516,69.622 85.857,69.622 74.161,110.495 	"/>
	
		<rect x="70.958" y="110.495" fill="#F4E55F" stroke="#040000" stroke-width="3" stroke-linecap="round" stroke-linejoin="round" stroke-miterlimit="10" width="52.457" height="5.107"/>
</g>
<g>
	<g>
		
			<line fill="none" stroke="#040000" stroke-width="3" stroke-linecap="round" stroke-linejoin="round" stroke-miterlimit="10" x1="107.817" y1="123.087" x2="113.558" y2="133.468"/>
		
			<line fill="none" stroke="#040000" stroke-width="3" stroke-linecap="round" stroke-linejoin="round" stroke-miterlimit="10" x1="99.95" y1="127.094" x2="102.113" y2="143.351"/>
		
			<line fill="none" stroke="#040000" stroke-width="3" stroke-linecap="round" stroke-linejoin="round" stroke-miterlimit="10" x1="90.872" y1="126.778" x2="87.327" y2="143.136"/>
		
			<line fill="none" stroke="#040000" stroke-width="3" stroke-linecap="round" stroke-linejoin="round" stroke-miterlimit="10" x1="82.736" y1="123.176" x2="77.439" y2="132.228"/>
	</g>
</g>
<path fill="none" stroke="#040000" stroke-width="3" stroke-linecap="round" stroke-linejoin="round" stroke-miterlimit="10" d="
	M37.845,200.285"/>
<g>
	<polygon fill="#040000" points="51.064,242.094 45.772,243.938 47.425,229.033 52.716,227.19 	"/>
	<polygon fill="#040000" points="64.089,237.561 58.799,239.402 60.451,224.498 65.743,222.656 	"/>
	<polygon fill="#040000" points="77.116,233.023 71.823,234.868 73.476,219.963 78.769,218.119 	"/>
	<polygon fill="#040000" points="90.141,228.49 84.85,230.332 86.503,215.427 91.794,213.585 	"/>
	<polygon fill="#040000" points="103.167,223.955 97.875,225.797 99.528,210.894 104.819,209.051 	"/>
</g>
<g>
	
		<rect x="164.708" y="62.412" fill="#F4E55F" stroke="#040000" stroke-width="3" stroke-linecap="round" stroke-linejoin="round" stroke-miterlimit="10" width="28.292" height="7.209"/>
	
		<polyline fill="#FFFFFF" stroke="#040000" stroke-width="3" stroke-linecap="round" stroke-linejoin="round" stroke-miterlimit="10" points="
		201.88,110.495 190.184,69.622 167.523,69.622 155.828,110.495 	"/>
	
		<rect x="152.625" y="110.495" fill="#F4E55F" stroke="#040000" stroke-width="3" stroke-linecap="round" stroke-linejoin="round" stroke-miterlimit="10" width="52.457" height="5.107"/>
</g>
<g>
	<g>
		
			<line fill="none" stroke="#040000" stroke-width="3" stroke-linecap="round" stroke-linejoin="round" stroke-miterlimit="10" x1="189.484" y1="123.087" x2="195.225" y2="133.468"/>
		
			<line fill="none" stroke="#040000" stroke-width="3" stroke-linecap="round" stroke-linejoin="round" stroke-miterlimit="10" x1="181.617" y1="127.094" x2="183.779" y2="143.351"/>
		
			<line fill="none" stroke="#040000" stroke-width="3" stroke-linecap="round" stroke-linejoin="round" stroke-miterlimit="10" x1="172.539" y1="126.778" x2="168.994" y2="143.136"/>
		
			<line fill="none" stroke="#040000" stroke-width="3" stroke-linecap="round" stroke-linejoin="round" stroke-miterlimit="10" x1="164.403" y1="123.176" x2="159.106" y2="132.228"/>
	</g>
</g>
</svg>
