<?xml version="1.0" encoding="utf-8"?>
<!-- Generator: Adobe Illustrator 16.0.0, SVG Export Plug-In . SVG Version: 6.00 Build 0)  -->
<!DOCTYPE svg PUBLIC "-//W3C//DTD SVG 1.1//EN" "http://www.w3.org/Graphics/SVG/1.1/DTD/svg11.dtd">
<svg version="1.1" id="Layer_1" xmlns="http://www.w3.org/2000/svg" xmlns:xlink="http://www.w3.org/1999/xlink" x="0px" y="0px"
	 width="108.067px" height="136px" viewBox="0 0 108.067 136" enable-background="new 0 0 108.067 136" xml:space="preserve">
<g>
	<path fill="none" stroke="#000000" stroke-miterlimit="10" d="M41.276,77.093c0,0.628-0.51,1.137-1.139,1.137H29.896
		c-0.627,0-1.137-0.509-1.137-1.137l0,0c0-0.629,0.51-1.139,1.137-1.139h10.241C40.766,75.954,41.276,76.464,41.276,77.093
		L41.276,77.093z M81.167,77.093c0-0.629-0.511-1.139-1.138-1.139H69.788c-0.628,0-1.137,0.51-1.137,1.139l0,0
		c0,0.628,0.509,1.137,1.137,1.137H80.03C80.657,78.23,81.167,77.721,81.167,77.093L81.167,77.093z"/>
	<path fill="none" stroke="#000000" stroke-width="2" stroke-linecap="round" stroke-linejoin="bevel" d="M22.639,63.307
		c-2.464-5.831-3.854-12.428-3.854-19.418C18.786,20.202,34.739,1,54.42,1c19.679,0,35.632,19.202,35.632,42.889
		c0,6.99-1.389,13.587-3.854,19.418H22.639z M80.873,63.186c2.049-4.879,3.207-10.402,3.207-16.25
		c0-19.823-13.28-35.893-29.66-35.893c-16.381,0-29.661,16.07-29.661,35.893c0,5.849,1.157,11.372,3.208,16.25H80.873z"/>
	<path fill="none" stroke="#000000" stroke-width="2" stroke-linecap="round" stroke-linejoin="round" d="M103.86,66.295
		c0-1.335-1.082-2.418-2.418-2.418H4.721c-1.336,0-2.418,1.083-2.418,2.418v1.707c0,1.335,1.082,2.417,2.418,2.417h96.721
		c1.336,0,2.418-1.082,2.418-2.417V66.295z"/>
	<path fill="none" stroke="#000000" stroke-width="2" stroke-linecap="round" stroke-linejoin="round" d="M103.587,92.04
		c-8.966,11.096-0.299,9.673-0.299,15.647s-9.838,17.638-4.795,20.767c5.041,3.129,3.717,6.542-1.049,6.542
		c-4.76,0-5.033-2.846-5.033-8.25c0-3.663,0-28.984,0-43.984h-77c0,15,0,40.321,0,43.984c0,5.404-0.012,8.254-4.848,8.254
		s-6.202-3.408-1.082-6.536c5.121-3.13-4.728-14.784-4.728-20.758c0-5.973,8.873-4.532-0.23-15.626
		c-9.104-11.096,2.303-21.297,2.303-21.297l1.788,0.144c0.358-0.207,0.782-0.165,1.226-0.165h86.195
		c0.494,0,0.953-0.021,1.335,0.232l3.991-0.281C101.363,70.712,112.552,80.945,103.587,92.04z M53.412,70.761v11"/>
	<path fill="none" stroke="#000000" stroke-width="2" stroke-linecap="round" stroke-linejoin="round" d="M38.75,102.696
		c0,0-5.314,4.783-1.063,9.964c4.25,5.18,0.133,4.517,0.133,7.307s4.649,8.237,2.258,9.697c-2.392,1.461-1.595,3.056,0.664,3.056
		s2.525-1.329,2.525-3.853s0-26.039,0-26.039 M64.887,102.829c0,0,0,23.515,0,26.039s0.278,3.853,2.641,3.853
		c2.365,0,3.199-1.595,0.696-3.056c-2.502-1.46,2.363-6.907,2.363-9.697s-4.31-2.127,0.14-7.307
		c4.449-5.181-1.113-9.964-1.113-9.964"/>
	<path fill="none" stroke="#000000" stroke-width="2" stroke-linecap="round" stroke-linejoin="round" d="M36.447,97.744
		c0,0-2.56-9.174,14.721-9.174c20.48-0.427,18.561,8.96,18.561,8.96 M71.436,99.522c0-1.335-1.083-2.418-2.418-2.418H37.584
		c-1.334,0-2.417,1.083-2.417,2.418v0.925c0,1.334,1.083,2.417,2.417,2.417h31.433c1.336,0,2.418-1.083,2.418-2.417V99.522z"/>
</g>
<g>
</g>
<g>
</g>
<g>
</g>
<g>
</g>
<g>
</g>
<g>
</g>
</svg>
