<?xml version="1.0" encoding="utf-8"?>
<!-- Generator: Adobe Illustrator 16.0.0, SVG Export Plug-In . SVG Version: 6.00 Build 0)  -->
<!DOCTYPE svg PUBLIC "-//W3C//DTD SVG 1.1//EN" "http://www.w3.org/Graphics/SVG/1.1/DTD/svg11.dtd">
<svg version="1.1" id="Layer_1" xmlns="http://www.w3.org/2000/svg" xmlns:xlink="http://www.w3.org/1999/xlink" x="0px" y="0px"
	 width="101.093px" height="132px" viewBox="0 0 101.093 132" enable-background="new 0 0 101.093 132" xml:space="preserve">
<g>
	<path fill="none" stroke="#000000" stroke-width="2" stroke-linecap="round" stroke-linejoin="round" d="M11.092,113.925
		c-0.192,0.026-0.27-0.04-0.233-0.197c1.796-0.338,3.617-0.312,5.528-0.312c1.326,0,4.866-0.05,3.781,2.036
		c-0.64,1.23-2.12,2.014-3.081,2.987c-1.115,1.129-2.123,2.312-2.52,3.833c-0.78,2.986,0.907,8.306-3.728,8.712
		c-1.731,0.152-3.601-0.768-4.103-2.545c-0.252-0.892-0.304-1.813,0.26-2.608c0.648-0.915,1.243-0.573,2.305-0.753
		c-0.75-1.953-1.676-3.39-1.74-5.607c-0.044-1.563-0.134-5.433,2.018-5.8 M89.646,113.925c0.207,0.026,0.29-0.04,0.251-0.197
		c-1.94-0.338-3.907-0.312-5.972-0.312c-1.433,0-5.257-0.05-4.085,2.036c0.691,1.23,2.291,2.014,3.328,2.987
		c1.205,1.129,2.293,2.312,2.724,3.833c0.841,2.986-0.981,8.306,4.026,8.712c1.87,0.152,3.89-0.768,4.432-2.545
		c0.271-0.892,0.329-1.813-0.28-2.608c-0.699-0.915-1.343-0.573-2.49-0.753c0.811-1.953,1.812-3.39,1.879-5.607
		c0.048-1.563,0.144-5.433-2.179-5.8"/>
	<path fill="none" stroke="#000000" stroke-width="2" stroke-linecap="round" stroke-linejoin="round" d="M100.093,10.295
		c0,1.406-1.128,2.546-2.521,2.546H3.521C2.129,12.841,1,11.701,1,10.295V8.894c0-1.406,1.129-2.545,2.521-2.545h94.051
		c1.393,0,2.521,1.14,2.521,2.545V10.295z"/>
	<path fill="none" stroke="#000000" stroke-width="2" stroke-linecap="round" stroke-linejoin="round" d="M97.573,3.802
		c0,1.406-1.13,2.546-2.521,2.546H6.925c-1.393,0-2.521-1.141-2.521-2.546V3.546C4.404,2.14,5.533,1,6.925,1h88.126
		c1.392,0,2.521,1.14,2.521,2.546V3.802z"/>
	<path fill="none" stroke="#000000" stroke-width="2" stroke-linecap="round" stroke-linejoin="round" d="M100.093,105.822
		c0,1.376-1.128,2.491-2.521,2.491H3.521c-1.393,0-2.521-1.115-2.521-2.491v-1.37c0-1.376,1.129-2.491,2.521-2.491h94.051
		c1.393,0,2.521,1.115,2.521,2.491V105.822z M97.573,110.805c0-1.376-1.13-2.491-2.521-2.491H6.925
		c-1.393,0-2.521,1.115-2.521,2.491v0.25c0,1.375,1.128,2.491,2.521,2.491h88.126c1.392,0,2.521-1.116,2.521-2.491V110.805z"/>
	<path fill="none" stroke="#000000" stroke-width="2" d="M92.53,99.551c0,1.407-1.129,2.547-2.522,2.547H11.842
		c-1.392,0-2.521-1.14-2.521-2.547V15.26c0-1.406,1.129-2.546,2.521-2.546h78.166c1.394,0,2.522,1.14,2.522,2.546V99.551z"/>
	<path fill="none" stroke="#000000" stroke-width="2" stroke-linecap="round" stroke-linejoin="round" d="M48.447,92.42
		c0,1.406-1.061,2.546-2.371,2.546H17.743c-1.309,0-2.37-1.14-2.37-2.546V21.117c0-1.406,1.062-2.546,2.37-2.546h28.333
		c1.31,0,2.371,1.14,2.371,2.546V92.42z M86.857,21.117c0-1.406-1.063-2.546-2.371-2.546H56.152c-1.309,0-2.371,1.14-2.371,2.546
		V92.42c0,1.406,1.062,2.546,2.371,2.546h28.334c1.309,0,2.371-1.14,2.371-2.546V21.117z"/>
	<path fill="none" stroke="#000000" stroke-width="2" stroke-linecap="round" stroke-linejoin="round" d="M44.138,60.625
		c0,0.773-0.621,1.4-1.387,1.4l0,0c-0.766,0-1.387-0.627-1.387-1.4V50.439c0-0.773,0.621-1.4,1.387-1.4l0,0
		c0.766,0,1.387,0.627,1.387,1.4V60.625z M60.751,50.439c0-0.773-0.62-1.4-1.386-1.4l0,0c-0.766,0-1.387,0.627-1.387,1.4v10.185
		c0,0.773,0.621,1.4,1.387,1.4l0,0c0.766,0,1.386-0.627,1.386-1.4V50.439z"/>
</g>
<g>
</g>
<g>
</g>
<g>
</g>
<g>
</g>
<g>
</g>
<g>
</g>
</svg>
