<?xml version="1.0" encoding="utf-8"?>
<!-- Generator: Adobe Illustrator 16.0.0, SVG Export Plug-In . SVG Version: 6.00 Build 0)  -->
<!DOCTYPE svg PUBLIC "-//W3C//DTD SVG 1.1//EN" "http://www.w3.org/Graphics/SVG/1.1/DTD/svg11.dtd">
<svg version="1.1" id="Layer_1" xmlns="http://www.w3.org/2000/svg" xmlns:xlink="http://www.w3.org/1999/xlink" x="0px" y="0px"
	 width="136.556px" height="132px" viewBox="0 0 136.556 132" enable-background="new 0 0 136.556 132" xml:space="preserve">
<path fill="none" stroke="#000000" stroke-width="2" stroke-linecap="round" stroke-linejoin="round" d="M34.05,82.451
	c0.203-1.16-0.573-2.266-1.734-2.469l0,0c-1.16-0.204-2.266,0.572-2.469,1.733l-6.719,38.355c-0.203,1.161,0.573,2.267,1.734,2.47
	l0,0c1.16,0.203,2.265-0.573,2.469-1.734L34.05,82.451z M58.601,81.572c-0.283-1.144-1.439-1.843-2.583-1.561l0,0
	c-1.145,0.283-1.843,1.439-1.56,2.583l9.337,37.804c0.283,1.144,1.439,1.842,2.583,1.56l0,0c1.144-0.283,1.843-1.439,1.56-2.583
	L58.601,81.572z"/>
<path fill="none" stroke="#000000" stroke-width="2" stroke-linecap="round" stroke-linejoin="round" d="M24.415,71.17
	c0,2.083-1.688,3.771-3.772,3.771c-2.083,0-3.772-1.688-3.772-3.771c0-2.083,1.689-3.772,3.772-3.772
	C22.727,67.398,24.415,69.086,24.415,71.17z M34.844,67.398c-2.083,0-3.772,1.688-3.772,3.772c0,2.083,1.689,3.771,3.772,3.771
	c2.083,0,3.772-1.688,3.772-3.771C38.616,69.086,36.927,67.398,34.844,67.398z M49.044,67.398c-2.083,0-3.772,1.688-3.772,3.772
	c0,2.083,1.689,3.771,3.772,3.771c2.084,0,3.772-1.688,3.772-3.771C52.816,69.086,51.128,67.398,49.044,67.398z M63.246,67.398
	c-2.084,0-3.772,1.688-3.772,3.772c0,2.083,1.688,3.771,3.772,3.771c2.083,0,3.771-1.688,3.771-3.771
	C67.017,69.086,65.328,67.398,63.246,67.398z"/>
<path fill="none" stroke="#000000" stroke-width="2" stroke-linecap="round" stroke-linejoin="round" d="M77.446,67.398
	c-2.084,0-3.772,1.688-3.772,3.772c0,2.083,1.688,3.771,3.772,3.771c2.083,0,3.771-1.688,3.771-3.771
	C81.218,69.086,79.529,67.398,77.446,67.398z M91.646,67.398c-2.084,0-3.772,1.688-3.772,3.772c0,2.083,1.688,3.771,3.772,3.771
	c2.083,0,3.771-1.688,3.771-3.771C95.417,69.086,93.729,67.398,91.646,67.398z M105.846,67.398c-2.084,0-3.772,1.688-3.772,3.772
	c0,2.083,1.688,3.771,3.772,3.771c2.083,0,3.771-1.688,3.771-3.771C109.617,69.086,107.929,67.398,105.846,67.398z M120.047,67.398
	c-2.084,0-3.771,1.688-3.771,3.772c0,2.083,1.688,3.771,3.771,3.771c2.083,0,3.771-1.688,3.771-3.771
	C123.818,69.086,122.13,67.398,120.047,67.398z"/>
<path fill="none" stroke="#000000" stroke-width="2" stroke-linecap="round" stroke-linejoin="round" d="M83.977,82.451
	c0.203-1.16-0.574-2.266-1.734-2.469l0,0c-1.16-0.204-2.266,0.572-2.469,1.733l-6.719,38.355c-0.203,1.161,0.572,2.267,1.734,2.47
	l0,0c1.16,0.203,2.266-0.573,2.469-1.734L83.977,82.451z M108.527,81.572c-0.283-1.144-1.44-1.843-2.583-1.561l0,0
	c-1.145,0.283-1.843,1.439-1.561,2.583l9.338,37.804c0.282,1.144,1.439,1.842,2.584,1.56l0,0c1.144-0.283,1.842-1.439,1.559-2.583
	L108.527,81.572z"/>
<path fill="none" stroke="#000000" stroke-width="2" stroke-linecap="round" stroke-linejoin="round" d="M63.259,48.705
	c0,1.937-1.569,3.506-3.505,3.506H28.662c-1.936,0-3.505-1.569-3.505-3.506V4.505C25.157,2.569,26.726,1,28.662,1h31.092
	c1.937,0,3.505,1.569,3.505,3.505V48.705z"/>
<path fill="none" stroke="#000000" stroke-width="2" stroke-linecap="round" stroke-linejoin="round" d="M130.396,76.444
	c0,1.937-1.569,3.506-3.505,3.506H13.8c-1.937,0-3.506-1.569-3.506-3.506V63.642c0-1.937,1.569-3.506,3.506-3.506h113.09
	c1.936,0,3.505,1.569,3.505,3.506V76.444z"/>
<path fill="none" stroke="#000000" stroke-width="2" stroke-linecap="round" stroke-linejoin="round" d="M139.693,56.63
	c0,1.936-1.57,3.506-3.507,3.506H4.502c-1.936,0-3.505-1.57-3.505-3.506v-0.915c0-1.936,1.569-3.505,3.505-3.505h131.684
	c1.937,0,3.507,1.569,3.507,3.505V56.63z"/>
<path fill="none" stroke="#000000" stroke-width="2" stroke-linecap="round" stroke-linejoin="round" d="M113.187,48.705
	c0,1.937-1.57,3.506-3.506,3.506H78.588c-1.935,0-3.504-1.569-3.504-3.506V4.505C75.083,2.569,76.653,1,78.588,1h31.093
	c1.936,0,3.506,1.569,3.506,3.505V48.705z"/>
<path fill="none" stroke="#000000" stroke-width="2" stroke-linecap="round" stroke-linejoin="round" d="M18.262,132.949
	c0,1.133-1.112,2.051-2.483,2.051l0,0c-1.372,0-2.483-0.918-2.483-2.051V82c0-1.133,1.111-2.051,2.483-2.051l0,0
	c1.371,0,2.483,0.918,2.483,2.051V132.949z M127.396,82c0-1.133-1.112-2.051-2.483-2.051l0,0c-1.371,0-2.483,0.918-2.483,2.051
	v50.948c0,1.133,1.112,2.051,2.483,2.051l0,0c1.371,0,2.483-0.918,2.483-2.051V82z"/>
<g>
</g>
<g>
</g>
<g>
</g>
<g>
</g>
<g>
</g>
<g>
</g>
</svg>
