<?xml version="1.0" encoding="utf-8"?>
<!-- Generator: Adobe Illustrator 16.0.0, SVG Export Plug-In . SVG Version: 6.00 Build 0)  -->
<!DOCTYPE svg PUBLIC "-//W3C//DTD SVG 1.1//EN" "http://www.w3.org/Graphics/SVG/1.1/DTD/svg11.dtd">
<svg version="1.1" id="Layer_1" xmlns="http://www.w3.org/2000/svg" xmlns:xlink="http://www.w3.org/1999/xlink" x="0px" y="0px"
	 width="121px" height="121px" viewBox="0 0 121 121" enable-background="new 0 0 121 121" xml:space="preserve">
<g>
	<rect x="17.594" y="31.452" fill="#E7E7E7" width="84.284" height="8.337"/>
	<rect x="17.594" y="79.307" fill="#E7E7E7" width="84.284" height="8.338"/>
	<path fill="none" stroke="#231F20" stroke-linejoin="round" d="M32.874,97.521c-2.253-3.446-6.146-5.724-10.571-5.724
		c-4.342,0-8.169,2.191-10.442,5.528"/>
	<path fill="none" stroke="#231F20" stroke-linejoin="round" d="M56.011,97.427c-2.262-3.397-6.123-5.63-10.508-5.63
		c-4.38,0-8.238,2.231-10.502,5.625"/>
	<path fill="none" stroke="#231F20" stroke-linejoin="round" d="M78.992,97.106c-2.287-3.213-6.041-5.309-10.286-5.309
		c-4.298,0-8.093,2.148-10.372,5.432"/>
	<path fill="none" stroke="#231F20" stroke-linejoin="round" d="M102.715,97.888c-2.214-3.652-6.226-6.091-10.808-6.091
		c-4.181,0-7.888,2.031-10.182,5.166"/>
	<path fill="none" stroke="#231F20" stroke-linejoin="round" d="M25.042,110.869c-2.254-3.446-6.147-5.724-10.574-5.724
		c-4.339,0-8.169,2.192-10.44,5.529"/>
	<path fill="none" stroke="#231F20" stroke-linejoin="round" d="M48.18,110.777c-2.262-3.397-6.124-5.632-10.509-5.632
		c-4.38,0-8.238,2.231-10.501,5.627"/>
	<path fill="none" stroke="#231F20" stroke-linejoin="round" d="M71.158,110.454c-2.286-3.214-6.041-5.309-10.287-5.309
		c-4.296,0-8.091,2.148-10.371,5.434"/>
	<path fill="none" stroke="#231F20" stroke-linejoin="round" d="M94.882,111.238c-2.214-3.653-6.225-6.093-10.809-6.093
		c-4.179,0-7.884,2.033-10.181,5.168"/>
	<path fill="none" stroke="#231F20" stroke-linejoin="round" d="M118.888,111.238c-2.214-3.653-6.224-6.093-10.806-6.093
		c-4.181,0-7.887,2.033-10.182,5.168"/>
	<line fill="none" stroke="#231F20" stroke-linejoin="round" x1="26.532" y1="35.468" x2="28.925" y2="35.468"/>
	<line fill="none" stroke="#231F20" stroke-linejoin="round" x1="35.575" y1="35.468" x2="37.968" y2="35.468"/>
	<line fill="none" stroke="#231F20" stroke-linejoin="round" x1="44.617" y1="35.468" x2="47.01" y2="35.468"/>
	<line fill="none" stroke="#231F20" stroke-linejoin="round" x1="53.66" y1="35.468" x2="56.051" y2="35.468"/>
	<line fill="none" stroke="#231F20" stroke-linejoin="round" x1="62.701" y1="35.468" x2="65.094" y2="35.468"/>
	<line fill="none" stroke="#231F20" stroke-linejoin="round" x1="71.743" y1="35.468" x2="74.137" y2="35.468"/>
	<line fill="none" stroke="#231F20" stroke-linejoin="round" x1="80.785" y1="35.468" x2="83.178" y2="35.468"/>
	<line fill="none" stroke="#231F20" stroke-linejoin="round" x1="89.826" y1="35.468" x2="92.218" y2="35.468"/>
	<line fill="none" stroke="#231F20" stroke-linejoin="round" x1="26.532" y1="83.322" x2="28.925" y2="83.322"/>
	<line fill="none" stroke="#231F20" stroke-linejoin="round" x1="35.575" y1="83.322" x2="37.968" y2="83.322"/>
	<line fill="none" stroke="#231F20" stroke-linejoin="round" x1="44.617" y1="83.322" x2="47.01" y2="83.322"/>
	<line fill="none" stroke="#231F20" stroke-linejoin="round" x1="53.66" y1="83.322" x2="56.051" y2="83.322"/>
	<line fill="none" stroke="#231F20" stroke-linejoin="round" x1="62.701" y1="83.322" x2="65.094" y2="83.322"/>
	<line fill="none" stroke="#231F20" stroke-linejoin="round" x1="71.743" y1="83.322" x2="74.137" y2="83.322"/>
	<line fill="none" stroke="#231F20" stroke-linejoin="round" x1="80.785" y1="83.322" x2="83.178" y2="83.322"/>
	<line fill="none" stroke="#231F20" stroke-linejoin="round" x1="89.826" y1="83.322" x2="92.218" y2="83.322"/>
	<g>
		<path fill="#FEDA00" d="M52.354,68.234c-1.175,0.712-2.136,0.172-2.136-1.202V52.478c0-1.375,0.966-1.925,2.147-1.222
			l11.963,7.118c1.182,0.704,1.187,1.862,0.013,2.575L52.354,68.234z"/>
	</g>
	<line fill="none" stroke="#231F20" stroke-linejoin="round" x1="19.137" y1="39.791" x2="19.137" y2="79.307"/>
	<line fill="none" stroke="#231F20" stroke-linejoin="round" x1="100.231" y1="39.791" x2="100.231" y2="79.307"/>
	<g>
		
			<line fill="none" stroke="#231F20" stroke-linejoin="round" stroke-dasharray="2" x1="111.973" y1="57.274" x2="111.973" y2="79.108"/>
		<circle fill="none" stroke="#231F20" stroke-linejoin="round" cx="111.973" cy="51.492" r="2.791"/>
	</g>
	<g>
		
			<line fill="none" stroke="#231F20" stroke-linejoin="round" stroke-dasharray="2" x1="11.859" y1="18.337" x2="11.859" y2="40.169"/>
		<circle fill="none" stroke="#231F20" stroke-linejoin="round" cx="11.859" cy="12.554" r="2.791"/>
	</g>
	<g>
		
			<line fill="none" stroke="#231F20" stroke-linejoin="round" stroke-dasharray="2" x1="4.028" y1="70.714" x2="4.028" y2="92.548"/>
		<circle fill="none" stroke="#231F20" stroke-linejoin="round" cx="4.028" cy="64.929" r="2.791"/>
	</g>
	<g>
		
			<line fill="none" stroke="#231F20" stroke-linejoin="round" stroke-dasharray="2" x1="105.305" y1="19.602" x2="105.305" y2="41.437"/>
		<circle fill="none" stroke="#231F20" stroke-linejoin="round" cx="105.305" cy="13.817" r="2.791"/>
	</g>
</g>
</svg>
