<?xml version="1.0" encoding="utf-8"?>
<!-- Generator: Adobe Illustrator 16.0.0, SVG Export Plug-In . SVG Version: 6.00 Build 0)  -->
<!DOCTYPE svg PUBLIC "-//W3C//DTD SVG 1.1//EN" "http://www.w3.org/Graphics/SVG/1.1/DTD/svg11.dtd">
<svg version="1.1" id="Layer_1" xmlns="http://www.w3.org/2000/svg" xmlns:xlink="http://www.w3.org/1999/xlink" x="0px" y="0px"
	 width="121px" height="121px" viewBox="0 0 121 121" enable-background="new 0 0 121 121" xml:space="preserve">
<rect x="17.161" y="95.319" fill="#E6E7E8" width="86.677" height="8.4"/>
<polyline fill="none" stroke="#231F20" stroke-linejoin="round" points="87.783,28.522 87.783,13.655 112.239,13.655 
	112.239,28.522 "/>
<polygon fill="#FEDA00" points="93.67,34.598 93.67,40.473 106.35,40.473 106.35,34.348 115.407,34.348 115.407,26.204 
	106.251,26.204 106.251,20.348 93.471,20.348 93.471,26.204 84.613,26.204 84.613,34.598 "/>
<line fill="none" stroke="#231F20" stroke-linejoin="round" x1="100.011" y1="13.655" x2="100.011" y2="3.592"/>
<polyline fill="none" stroke="#231F20" stroke-linejoin="round" points="10,28.063 10,14.795 31.825,14.795 31.825,28.063 "/>
<polygon fill="#FEDA00" points="15.254,34.585 15.254,39.764 26.571,39.764 26.571,34.362 34.655,34.362 34.655,26.585 
	26.481,26.585 26.481,21.803 15.076,21.803 15.076,26.585 7.171,26.585 7.171,34.585 "/>
<line fill="none" stroke="#231F20" stroke-linejoin="round" x1="20.913" y1="14.795" x2="20.913" y2="5.813"/>
<line fill="none" stroke="#231F20" stroke-linejoin="round" x1="16.432" y1="30.611" x2="25.393" y2="30.611"/>
<line fill="none" stroke="#231F20" stroke-linejoin="round" x1="95.184" y1="30.405" x2="104.838" y2="30.405"/>
<polyline fill="none" stroke="#231F20" stroke-linejoin="round" points="48.783,28.521 48.783,13.655 73.239,13.655 73.239,28.521 
	"/>
<polygon fill="#E6E7E8" points="54.67,34.598 54.67,40.473 67.35,40.473 67.35,34.348 76.407,34.348 76.407,26.203 67.251,26.203 
	67.251,20.348 54.471,20.348 54.471,26.203 45.613,26.203 45.613,34.598 "/>
<line fill="none" stroke="#231F20" stroke-linejoin="round" x1="61.011" y1="13.655" x2="61.011" y2="3.592"/>
<line fill="none" stroke="#231F20" stroke-linejoin="round" x1="56.184" y1="30.404" x2="65.838" y2="30.404"/>
<g>
	<path fill="#E6E7E8" d="M115.362,43.473c0-1.65-1.079-2.189-2.398-1.198l-6.889,5.176c-1.319,0.991-2.398,3.152-2.398,4.802v49.398
		c0,1.65,1.079,3.811,2.398,4.802l6.889,5.175c1.319,0.991,2.398,0.452,2.398-1.198V43.473z"/>
</g>
<g>
	<path fill="#E6E7E8" d="M5.677,43.473c0-1.65,1.079-2.189,2.398-1.198l6.889,5.176c1.319,0.991,2.398,3.152,2.398,4.802v49.398
		c0,1.65-1.08,3.811-2.398,4.802l-6.889,5.175c-1.319,0.991-2.398,0.452-2.398-1.198V43.473z"/>
</g>
<polygon fill="none" stroke="#FEDA00" stroke-linejoin="round" stroke-miterlimit="10" points="38.178,54.357 34.144,60.722 
	38.178,67.086 41.903,60.722 "/>
<polygon fill="none" stroke="#FEDA00" stroke-linejoin="round" stroke-miterlimit="10" points="29.984,46.119 26.54,51.553 
	29.984,56.983 33.163,51.553 "/>
<polygon fill="none" stroke="#FEDA00" stroke-linejoin="round" stroke-miterlimit="10" points="29.851,63.812 26.407,69.243 
	29.851,74.676 33.031,69.243 "/>
<polygon fill="none" stroke="#FEDA00" stroke-linejoin="round" stroke-miterlimit="10" points="94.79,52.057 90.732,58.458 
	94.79,64.859 98.536,58.458 "/>
<polygon fill="none" stroke="#FEDA00" stroke-linejoin="round" stroke-miterlimit="10" points="86.549,43.771 83.085,49.235 
	86.549,54.698 89.746,49.235 "/>
<polygon fill="none" stroke="#FEDA00" stroke-linejoin="round" stroke-miterlimit="10" points="86.414,61.565 82.95,67.029 
	86.414,72.493 89.613,67.029 "/>
<g>
	<line fill="none" stroke="#231F20" stroke-linejoin="round" stroke-dasharray="2" x1="68.5" y1="66.734" x2="68.5" y2="81.336"/>
	<circle fill="none" stroke="#231F20" stroke-linejoin="round" cx="68.5" cy="62.867" r="1.867"/>
</g>
<g>
	
		<line fill="none" stroke="#231F20" stroke-linejoin="round" stroke-dasharray="2" x1="97.051" y1="74.978" x2="97.051" y2="89.579"/>
	<circle fill="none" stroke="#231F20" stroke-linejoin="round" cx="97.051" cy="71.11" r="1.867"/>
</g>
<g>
	<line fill="none" stroke="#231F20" stroke-linejoin="round" stroke-dasharray="2" x1="37.29" y1="77.846" x2="37.29" y2="92.447"/>
	<circle fill="none" stroke="#231F20" stroke-linejoin="round" cx="37.29" cy="73.977" r="1.867"/>
</g>
<g>
	
		<line fill="none" stroke="#231F20" stroke-linejoin="round" stroke-dasharray="2" x1="50.649" y1="51.854" x2="50.649" y2="66.456"/>
	<circle fill="none" stroke="#231F20" stroke-linejoin="round" cx="50.649" cy="47.986" r="1.867"/>
</g>
</svg>
