<?xml version="1.0" encoding="utf-8"?>
<!-- Generator: Adobe Illustrator 16.0.0, SVG Export Plug-In . SVG Version: 6.00 Build 0)  -->
<!DOCTYPE svg PUBLIC "-//W3C//DTD SVG 1.1//EN" "http://www.w3.org/Graphics/SVG/1.1/DTD/svg11.dtd">
<svg version="1.1" id="Layer_1" xmlns="http://www.w3.org/2000/svg" xmlns:xlink="http://www.w3.org/1999/xlink" x="0px" y="0px"
	 width="121px" height="121px" viewBox="0 0 121 121" enable-background="new 0 0 121 121" xml:space="preserve">
<circle fill="#A6A8AC" cx="49.454" cy="35.15" r="9.697"/>
<circle fill="#A6A8AC" cx="27.187" cy="35.143" r="9.697"/>
<path fill="#FEDA00" d="M57.13,70.501l14.894,7.168V41.373L57.13,49.797 M15.96,44.84v29.712h41.17V44.84H15.96z"/>
<line fill="none" stroke="#231F20" stroke-linejoin="round" stroke-dasharray="2" x1="67.449" y1="43.891" x2="67.449" y2="75.521"/>
<g>
	<path fill="#E7E7E7" d="M102.991,16.836c0-1.65-1.079-2.189-2.398-1.198l-9.058,6.805c-1.319,0.991-2.398,3.152-2.398,4.802v59.678
		c0,1.65,1.079,3.811,2.398,4.802l9.058,6.804c1.319,0.991,2.398,0.452,2.398-1.197V16.836z"/>
</g>
<line fill="none" stroke="#231F20" stroke-linejoin="round" x1="50.255" y1="72.078" x2="50.255" y2="69.902"/>
<g>
	<circle fill="none" stroke="#231F20" stroke-linejoin="round" cx="49.455" cy="35.15" r="2.125"/>
	<circle fill="none" stroke="#231F20" stroke-linejoin="round" stroke-dasharray="2" cx="49.455" cy="35.15" r="5.796"/>
</g>
<g>
	<circle fill="none" stroke="#231F20" stroke-linejoin="round" cx="27.188" cy="35.143" r="2.125"/>
	<circle fill="none" stroke="#231F20" stroke-linejoin="round" stroke-dasharray="2" cx="27.188" cy="35.143" r="5.797"/>
</g>
<rect x="15.96" y="44.84" fill="none" stroke="#231F20" stroke-linejoin="round" width="41.17" height="29.712"/>
<polyline fill="none" stroke="#231F20" stroke-linejoin="round" points="25.063,74.976 25.063,79.369 49.012,79.369 49.012,74.976 
	"/>
<rect x="35.025" y="79.369" fill="none" stroke="#231F20" stroke-linejoin="round" width="4.731" height="11.493"/>
<rect x="19.02" y="90.862" fill="none" stroke="#231F20" stroke-linejoin="round" width="36.231" height="3.847"/>
<line fill="none" stroke="#231F20" stroke-linejoin="round" x1="30.58" y1="94.708" x2="18.042" y2="107.246"/>
<line fill="none" stroke="#231F20" stroke-linejoin="round" x1="44.214" y1="94.708" x2="56.751" y2="107.246"/>
<line fill="none" stroke="#231F20" stroke-linejoin="round" x1="27.187" y1="25.445" x2="49.455" y2="25.445"/>
</svg>
