<?xml version="1.0" encoding="utf-8"?>
<!-- Generator: Adobe Illustrator 16.0.0, SVG Export Plug-In . SVG Version: 6.00 Build 0)  -->
<!DOCTYPE svg PUBLIC "-//W3C//DTD SVG 1.1//EN" "http://www.w3.org/Graphics/SVG/1.1/DTD/svg11.dtd">
<svg version="1.1" id="Layer_1" xmlns="http://www.w3.org/2000/svg" xmlns:xlink="http://www.w3.org/1999/xlink" x="0px" y="0px"
	 width="121px" height="121px" viewBox="0 0 121 121" enable-background="new 0 0 121 121" xml:space="preserve">
<rect x="16.563" y="22.952" fill="none" stroke="#231F20" stroke-linejoin="round" width="88.298" height="54.339"/>
<rect x="22.556" y="27.948" fill="#FEDA00" width="76.713" height="44.047"/>
<line fill="none" stroke="#231F20" stroke-linejoin="round" x1="74.496" y1="76.346" x2="74.496" y2="74.327"/>
<line fill="none" stroke="#231F20" stroke-linejoin="round" x1="79.092" y1="76.346" x2="79.092" y2="74.327"/>
<line fill="none" stroke="#231F20" stroke-linejoin="round" x1="83.688" y1="76.346" x2="83.688" y2="74.327"/>
<line fill="none" stroke="#231F20" stroke-linejoin="round" x1="88.283" y1="76.346" x2="88.283" y2="74.327"/>
<line fill="none" stroke="#231F20" stroke-linejoin="round" x1="53.321" y1="77.291" x2="53.321" y2="84.083"/>
<line fill="none" stroke="#231F20" stroke-linejoin="round" x1="68.704" y1="77.291" x2="68.704" y2="84.083"/>
<path fill="#FFFFFF" d="M74.07,48.746c0,7.365-5.969,13.335-13.333,13.335c-7.368,0-13.336-5.97-13.336-13.335
	c0-7.365,5.968-13.334,13.336-13.334C68.104,35.412,74.07,41.381,74.07,48.746z"/>
<path fill="none" stroke="#231F20" stroke-width="3" stroke-linejoin="round" d="M55.971,53.862
	c-1.368-1.276-2.226-3.094-2.226-5.116"/>
<path fill="none" stroke="#231F20" stroke-width="3" stroke-linejoin="round" d="M66.997,51.865
	c-0.825,1.654-2.287,2.934-4.063,3.521"/>
<path fill="none" stroke="#231F20" stroke-width="3" stroke-linejoin="round" d="M58.017,42.306
	c0.836-0.355,1.756-0.549,2.722-0.549c1.139,0,2.211,0.273,3.164,0.757"/>
<line fill="none" stroke="#231F20" stroke-linejoin="round" x1="60.106" y1="62.061" x2="78.191" y2="62.061"/>
<line fill="none" stroke="#231F20" stroke-linejoin="round" x1="30.578" y1="37.735" x2="41.386" y2="37.735"/>
<line fill="none" stroke="#231F20" stroke-linejoin="round" x1="30.578" y1="41.756" x2="38.2" y2="41.756"/>
<line fill="none" stroke="#231F20" stroke-linejoin="round" x1="82.959" y1="41.756" x2="90.581" y2="41.756"/>
<line fill="none" stroke="#231F20" stroke-linejoin="round" x1="82.959" y1="58.364" x2="90.581" y2="58.364"/>
<line fill="none" stroke="#231F20" stroke-linejoin="round" x1="30.578" y1="50.517" x2="38.2" y2="50.517"/>
<line fill="none" stroke="#231F20" stroke-linejoin="round" x1="30.578" y1="59.276" x2="38.2" y2="59.276"/>
<line fill="none" stroke="#231F20" stroke-linejoin="round" x1="30.578" y1="46.132" x2="41.386" y2="46.132"/>
<line fill="none" stroke="#231F20" stroke-linejoin="round" x1="30.578" y1="54.526" x2="41.386" y2="54.526"/>
<line fill="none" stroke="#231F20" stroke-linejoin="round" x1="30.578" y1="62.922" x2="41.386" y2="62.922"/>
<line fill="none" stroke="#231F20" stroke-linejoin="round" x1="82.959" y1="37.735" x2="93.768" y2="37.735"/>
<line fill="none" stroke="#231F20" stroke-linejoin="round" x1="82.959" y1="46.132" x2="93.768" y2="46.132"/>
<line fill="none" stroke="#231F20" stroke-linejoin="round" x1="82.959" y1="54.526" x2="93.768" y2="54.526"/>
<line fill="none" stroke="#231F20" stroke-linejoin="round" x1="82.959" y1="62.922" x2="93.768" y2="62.922"/>
<line fill="none" stroke="#FEDA00" stroke-miterlimit="10" x1="20.217" y1="96.868" x2="104.219" y2="96.868"/>
<rect x="34.144" y="84.083" fill="none" stroke="#231F20" stroke-linejoin="round" width="50.741" height="6.542"/>
<circle fill="none" stroke="#231F20" stroke-linejoin="round" cx="60.737" cy="48.746" r="2.558"/>
<rect x="100.422" y="93.072" fill="none" stroke="#231F20" stroke-linejoin="round" width="7.594" height="7.592"/>
<rect x="14.736" y="93.073" fill="none" stroke="#231F20" stroke-linejoin="round" width="7.591" height="7.591"/>
</svg>
