<?xml version="1.0" encoding="utf-8"?>
<!-- Generator: Adobe Illustrator 16.0.0, SVG Export Plug-In . SVG Version: 6.00 Build 0)  -->
<!DOCTYPE svg PUBLIC "-//W3C//DTD SVG 1.1//EN" "http://www.w3.org/Graphics/SVG/1.1/DTD/svg11.dtd">
<svg version="1.1" id="Layer_1" xmlns="http://www.w3.org/2000/svg" xmlns:xlink="http://www.w3.org/1999/xlink" x="0px" y="0px"
	 width="121px" height="121px" viewBox="0 0 121 121" enable-background="new 0 0 121 121" xml:space="preserve">
<rect x="7.132" y="36.758" fill="#FEDA00" width="31.206" height="52.48"/>
<circle fill="#E7E7E7" cx="22.734" cy="70.111" r="9.84"/>
<circle fill="none" stroke="#231F20" stroke-linejoin="round" cx="22.734" cy="70.111" r="6.25"/>
<line fill="none" stroke="#231F20" stroke-linejoin="round" stroke-dasharray="2" x1="10.217" y1="52.36" x2="35.218" y2="52.36"/>
<polyline fill="none" stroke="#231F20" stroke-linejoin="round" points="9.066,89.238 9.066,92.961 14.563,92.961 14.563,89.238 "/>
<polyline fill="none" stroke="#231F20" stroke-linejoin="round" points="30.521,89.238 30.521,92.961 36.016,92.961 36.016,89.238 
	"/>
<rect x="15.449" y="42.431" fill="none" stroke="#231F20" stroke-linejoin="round" width="15.78" height="4.61"/>
<rect x="78.568" y="37.643" fill="#FEDA00" width="31.205" height="52.482"/>
<circle fill="#E7E7E7" cx="94.171" cy="70.998" r="9.841"/>
<circle fill="none" stroke="#231F20" stroke-linejoin="round" cx="94.17" cy="70.999" r="6.25"/>
<line fill="none" stroke="#231F20" stroke-linejoin="round" stroke-dasharray="2" x1="81.656" y1="53.246" x2="106.654" y2="53.246"/>
<polyline fill="none" stroke="#231F20" stroke-linejoin="round" points="80.503,90.258 80.503,93.849 86,93.849 86,90.258 "/>
<polyline fill="none" stroke="#231F20" stroke-linejoin="round" points="101.957,90.258 101.957,93.849 107.453,93.849 
	107.453,90.258 "/>
<rect x="86.887" y="43.317" fill="none" stroke="#231F20" stroke-linejoin="round" width="15.779" height="4.611"/>
<polyline fill="#E7E7E7" points="48.162,91.721 48.162,93.049 41.204,93.049 41.204,63.795 75.643,63.795 75.643,93.049 
	67.754,93.049 67.754,91.721 "/>
<line fill="none" stroke="#231F20" stroke-linejoin="round" x1="43.596" y1="74.965" x2="73.116" y2="74.965"/>
<line fill="none" stroke="#231F20" stroke-linejoin="round" x1="43.729" y1="90.258" x2="72.852" y2="90.258"/>
<circle fill="#FEDA00" cx="68.021" cy="82.945" r="2.837"/>
<line fill="none" stroke="#231F20" stroke-linejoin="round" x1="60.484" y1="79.754" x2="60.484" y2="85.87"/>
<line fill="none" stroke="#231F20" stroke-linejoin="round" x1="56.761" y1="79.754" x2="56.761" y2="85.87"/>
<line fill="none" stroke="#231F20" stroke-linejoin="round" x1="53.037" y1="79.754" x2="53.037" y2="85.87"/>
<line fill="none" stroke="#231F20" stroke-linejoin="round" x1="49.314" y1="79.754" x2="49.314" y2="85.87"/>
<line fill="none" stroke="#A6A8AC" stroke-width="4" stroke-linejoin="round" x1="49.182" y1="70.113" x2="67.959" y2="70.113"/>
<line fill="none" stroke="#A6A8AC" stroke-linejoin="round" x1="23.605" y1="25.792" x2="94.156" y2="25.792"/>
<circle fill="#E7E7E7" cx="19.062" cy="25.792" r="4.543"/>
<circle fill="#E7E7E7" cx="97.3" cy="25.792" r="4.543"/>
</svg>
