<?xml version="1.0" encoding="utf-8"?>
<!-- Generator: Adobe Illustrator 16.0.0, SVG Export Plug-In . SVG Version: 6.00 Build 0)  -->
<!DOCTYPE svg PUBLIC "-//W3C//DTD SVG 1.1//EN" "http://www.w3.org/Graphics/SVG/1.1/DTD/svg11.dtd">
<svg version="1.1" id="Layer_1" xmlns="http://www.w3.org/2000/svg" xmlns:xlink="http://www.w3.org/1999/xlink" x="0px" y="0px"
	 width="121px" height="121px" viewBox="0 0 121 121" enable-background="new 0 0 121 121" xml:space="preserve">
<g>
	<g>
		<polyline fill="none" stroke="#231F20" stroke-linejoin="round" points="0.5,6.807 0.5,0.5 6.589,0.5 		"/>
		<polyline fill="none" stroke="#231F20" stroke-linejoin="round" points="120.5,6.874 120.5,0.5 114.089,0.5 		"/>
		<polyline fill="none" stroke="#231F20" stroke-linejoin="round" points="0.5,113.838 0.5,120.5 6.323,120.5 		"/>
		<polyline fill="none" stroke="#231F20" stroke-linejoin="round" points="120.5,113.838 120.5,120.5 113.821,120.5 		"/>
	</g>
	<g>
		<circle fill="#FEDA00" cx="87.549" cy="28.031" r="5.511"/>
		<path fill="none" stroke="#FEDA00" stroke-miterlimit="10" stroke-dasharray="2" d="M78.271,36.25
			c-1.809-2.035-2.962-4.68-3.105-7.61c-0.335-6.837,4.937-12.656,11.772-12.992c6.839-0.336,12.654,4.937,12.992,11.772
			c0.161,3.243-0.942,6.258-2.874,8.566"/>
		<path fill="none" stroke="#FEDA00" stroke-miterlimit="10" stroke-dasharray="2" d="M73.893,40.65
			c-2.859-3.093-4.693-7.168-4.918-11.706C68.472,18.686,76.378,9.96,86.637,9.456c10.254-0.502,18.981,7.404,19.485,17.66
			c0.262,5.291-1.716,10.173-5.099,13.732"/>
		<path fill="none" stroke="#FEDA00" stroke-miterlimit="10" stroke-dasharray="2" d="M69.521,45.464
			c-4.083-4.218-6.71-9.879-7.02-16.201C61.819,15.43,72.483,3.662,86.316,2.982c13.833-0.683,25.601,9.981,26.281,23.814
			c0.36,7.315-2.448,14.046-7.224,18.874"/>
		<line fill="none" stroke="#231F20" stroke-linejoin="round" x1="87.536" y1="33.541" x2="87.536" y2="88.011"/>
		<path fill="none" stroke="#231F20" stroke-linejoin="round" d="M108.059,98.869c0,2.988-2.443,5.433-5.433,5.433H36.833
			c-2.99,0-5.433-2.444-5.433-5.433v-5.426c0-2.988,2.443-5.433,5.433-5.433h65.793c2.989,0,5.433,2.444,5.433,5.433V98.869z"/>
		<polyline fill="none" stroke="#231F20" stroke-linejoin="round" points="45.372,88.011 49.925,97.514 85.379,97.514 
			90.648,88.011 		"/>
		<path fill="#FEDA00" d="M99.556,97.273c0,1.653-1.338,2.992-2.991,2.992c-1.656,0-2.994-1.339-2.994-2.992
			s1.338-2.994,2.994-2.994C98.218,94.279,99.556,95.62,99.556,97.273z"/>
		<rect x="40.261" y="104.302" fill="none" stroke="#231F20" stroke-linejoin="round" width="8.944" height="4.152"/>
		<rect x="86.895" y="104.302" fill="none" stroke="#231F20" stroke-linejoin="round" width="8.944" height="4.152"/>
	</g>
	<rect x="4.369" y="54.594" fill="#E7E7E7" width="15.169" height="15.171"/>
	<g>
		<rect x="30.992" y="54.594" fill="none" stroke="#231F20" stroke-linejoin="round" width="4.666" height="15.171"/>
		<rect x="39.766" y="54.594" fill="none" stroke="#231F20" stroke-linejoin="round" width="4.668" height="15.171"/>
	</g>
	<g>
		<path fill="none" stroke="#231F20" stroke-linejoin="round" stroke-dasharray="2" d="M8.432,76.408v17.844c0,2.75,2.25,5,5,5
			h12.709"/>
	</g>
	<g>
		<path fill="none" stroke="#231F20" stroke-linejoin="round" stroke-dasharray="2" d="M8.432,45.713V22.959c0-2.75,2.25-5,5-5
			H52.94"/>
	</g>
	<g>
		<g>
			<rect x="56.836" y="55.767" fill="#E7E7E7" width="48.291" height="26.332"/>
			<path fill="#A6A8AB" d="M80.982,62.775c3.399-0.003,6.158,2.758,6.158,6.158c-0.002,3.402-2.759,6.159-6.158,6.159
				c-3.4,0-6.159-2.757-6.16-6.159C74.822,65.533,77.579,62.772,80.982,62.775z"/>
			<circle fill="#A6A8AB" cx="69.388" cy="68.933" r="2.254"/>
			<circle fill="#A6A8AB" cx="92.874" cy="68.933" r="2.254"/>
		</g>
		<polyline fill="none" stroke="#231F20" stroke-linejoin="round" points="58.383,53.606 107.016,53.606 107.016,80.076 		"/>
		<polyline fill="none" stroke="#231F20" stroke-linejoin="round" points="61.715,50.35 110.348,50.35 110.348,76.818 		"/>
	</g>
	<polygon fill="#E7E7E7" points="78.751,64.986 78.751,72.88 85.369,69.127 	"/>
</g>
<g>
</g>
<g>
</g>
<g>
</g>
<g>
</g>
<g>
</g>
<g>
</g>
</svg>
