<?xml version="1.0" encoding="utf-8"?>
<!-- Generator: Adobe Illustrator 16.0.0, SVG Export Plug-In . SVG Version: 6.00 Build 0)  -->
<!DOCTYPE svg PUBLIC "-//W3C//DTD SVG 1.1//EN" "http://www.w3.org/Graphics/SVG/1.1/DTD/svg11.dtd">
<svg version="1.1" id="Layer_1" xmlns="http://www.w3.org/2000/svg" xmlns:xlink="http://www.w3.org/1999/xlink" x="0px" y="0px"
	 width="121px" height="121.001px" viewBox="0 0 121 121.001" enable-background="new 0 0 121 121.001" xml:space="preserve">
<g>
	<g>
		<polyline fill="none" stroke="#231F20" stroke-linejoin="round" points="0.5,6.807 0.5,0.5 6.588,0.5 		"/>
		<polyline fill="none" stroke="#231F20" stroke-linejoin="round" points="120.5,6.874 120.5,0.5 114.09,0.5 		"/>
		<polyline fill="none" stroke="#231F20" stroke-linejoin="round" points="0.5,113.839 0.5,120.501 6.323,120.501 		"/>
		<polyline fill="none" stroke="#231F20" stroke-linejoin="round" points="120.5,113.839 120.5,120.501 113.821,120.501 		"/>
	</g>
	<path fill="none" stroke="#231F20" stroke-linejoin="round" d="M69.518,40.049c0,7.779-5.979,14.088-13.354,14.088
		c-7.374,0-13.354-6.309-13.354-14.088"/>
	<line fill="none" stroke="#231F20" stroke-linejoin="round" x1="56.535" y1="11.011" x2="56.535" y2="0.609"/>
	<path fill="none" stroke="#231F20" stroke-linejoin="round" d="M104.911,88.977l-9.202-11.013c0,0-20.634,0-28.396,0
		c-7.764,0-10.838,6.01-10.838,6.01s-3.47-6.01-10.837-6.01s-30.853,0-30.853,0l-4.027,12.302"/>
	<g>
		<path fill="#FEDA00" d="M62.04,18.987c-0.757-0.798-2.276-1.452-3.376-1.452h-4.256c-1.1,0-2.619,0.653-3.376,1.452l-18.591,19.61
			c-0.757,0.798-0.476,1.452,0.624,1.452h46.938c1.1,0,1.381-0.653,0.624-1.452L62.04,18.987z"/>
	</g>
	<polyline fill="none" stroke="#FEDA00" stroke-miterlimit="10" points="52.621,19.853 52.621,11.011 60.664,11.011 60.664,19.853 	
		"/>
	<path fill="none" stroke="#231F20" stroke-linejoin="round" d="M13.003,83.755c0,0,24.592,0,30.007,0
		c5.415,0,9.189,5.737,9.189,5.737"/>
	<path fill="none" stroke="#231F20" stroke-linejoin="round" d="M100.31,83.755c0,0-24.494,0-30.37,0
		c-5.877,0-9.101,5.737-9.101,5.737"/>
	<ellipse fill="none" stroke="#A6A8AC" stroke-miterlimit="10" cx="104.911" cy="79.294" rx="6.982" ry="5.73"/>
	<rect x="88.997" y="67.959" fill="#FEDA00" width="16.31" height="22.307"/>
	<rect x="1.896" y="88.977" fill="#E7E7E7" width="111.78" height="10.833"/>
	<g>
		<line fill="none" stroke="#231F20" stroke-linejoin="round" x1="30.555" y1="63.637" x2="39.432" y2="54.761"/>
		<polyline fill="none" stroke="#231F20" stroke-linejoin="round" points="36.912,62.7 30.555,63.637 31.494,57.282 		"/>
	</g>
	<g>
		<line fill="none" stroke="#231F20" stroke-linejoin="round" x1="22.189" y1="53.232" x2="31.065" y2="44.356"/>
		<polyline fill="none" stroke="#231F20" stroke-linejoin="round" points="28.547,52.294 22.189,53.232 23.129,46.876 		"/>
	</g>
	<g>
		<line fill="none" stroke="#231F20" stroke-linejoin="round" x1="82.095" y1="63.637" x2="73.219" y2="54.761"/>
		<polyline fill="none" stroke="#231F20" stroke-linejoin="round" points="75.738,62.7 82.095,63.637 81.156,57.282 		"/>
	</g>
	<g>
		<line fill="none" stroke="#231F20" stroke-linejoin="round" x1="90.461" y1="53.232" x2="81.585" y2="44.356"/>
		<polyline fill="none" stroke="#231F20" stroke-linejoin="round" points="84.104,52.294 90.461,53.232 89.521,46.876 		"/>
	</g>
	<circle fill="none" stroke="#231F20" stroke-linejoin="round" cx="97.152" cy="79.112" r="3.157"/>
	<line fill="none" stroke="#231F20" stroke-linejoin="round" x1="91.306" y1="79.112" x2="93.995" y2="79.112"/>
	<line fill="none" stroke="#231F20" stroke-linejoin="round" x1="100.31" y1="79.112" x2="102.997" y2="79.112"/>
</g>
<g>
</g>
<g>
</g>
<g>
</g>
<g>
</g>
<g>
</g>
<g>
</g>
</svg>
