<?xml version="1.0" encoding="utf-8"?>
<!-- Generator: Adobe Illustrator 16.0.0, SVG Export Plug-In . SVG Version: 6.00 Build 0)  -->
<!DOCTYPE svg PUBLIC "-//W3C//DTD SVG 1.1//EN" "http://www.w3.org/Graphics/SVG/1.1/DTD/svg11.dtd">
<svg version="1.1" id="Layer_1" xmlns="http://www.w3.org/2000/svg" xmlns:xlink="http://www.w3.org/1999/xlink" x="0px" y="0px"
	 width="121px" height="121px" viewBox="0 0 121 121" enable-background="new 0 0 121 121" xml:space="preserve">
<g>
	<circle fill="#FEDA00" cx="87.549" cy="28.031" r="5.511"/>
	<path fill="none" stroke="#FEDA00" stroke-miterlimit="10" stroke-dasharray="2" d="M78.271,36.25
		c-1.81-2.035-2.963-4.68-3.105-7.61c-0.335-6.837,4.938-12.656,11.771-12.992c6.84-0.336,12.654,4.937,12.992,11.772
		c0.161,3.243-0.941,6.258-2.873,8.566"/>
	<path fill="none" stroke="#FEDA00" stroke-miterlimit="10" stroke-dasharray="2" d="M73.893,40.65
		c-2.858-3.093-4.692-7.168-4.918-11.706C68.473,18.686,76.378,9.96,86.637,9.456c10.254-0.502,18.981,7.404,19.485,17.66
		c0.262,5.291-1.716,10.173-5.099,13.732"/>
	<path fill="none" stroke="#FEDA00" stroke-miterlimit="10" stroke-dasharray="2" d="M69.521,45.464
		c-4.084-4.218-6.711-9.879-7.021-16.201C61.818,15.43,72.482,3.662,86.316,2.982c13.832-0.683,25.601,9.981,26.281,23.814
		c0.359,7.315-2.449,14.046-7.225,18.874"/>
	<line fill="none" stroke="#231F20" stroke-linejoin="round" x1="87.536" y1="33.541" x2="87.536" y2="88.011"/>
	<path fill="none" stroke="#231F20" stroke-linejoin="round" d="M108.059,98.869c0,2.988-2.442,5.433-5.433,5.433H36.833
		c-2.99,0-5.433-2.444-5.433-5.433v-5.426c0-2.988,2.443-5.434,5.433-5.434h65.793c2.989,0,5.433,2.444,5.433,5.434V98.869z"/>
	<polyline fill="none" stroke="#231F20" stroke-linejoin="round" points="45.372,88.011 49.925,97.514 85.379,97.514 90.648,88.011 
			"/>
	<path fill="#FEDA00" d="M99.557,97.273c0,1.652-1.339,2.992-2.992,2.992c-1.655,0-2.994-1.34-2.994-2.992
		c0-1.653,1.339-2.994,2.994-2.994C98.218,94.279,99.557,95.62,99.557,97.273z"/>
	<rect x="40.261" y="104.302" fill="none" stroke="#231F20" stroke-linejoin="round" width="8.944" height="4.152"/>
	<rect x="86.895" y="104.302" fill="none" stroke="#231F20" stroke-linejoin="round" width="8.944" height="4.152"/>
</g>
<rect x="4.369" y="54.594" fill="#E7E7E7" width="15.169" height="15.172"/>
<g>
	<rect x="30.992" y="54.594" fill="none" stroke="#231F20" stroke-linejoin="round" width="4.666" height="15.172"/>
	<rect x="39.766" y="54.594" fill="none" stroke="#231F20" stroke-linejoin="round" width="4.668" height="15.172"/>
</g>
<g>
	<path fill="none" stroke="#231F20" stroke-linejoin="round" stroke-dasharray="2" d="M8.432,76.408v17.844c0,2.75,2.25,5,5,5
		h12.709"/>
</g>
<g>
	<path fill="none" stroke="#231F20" stroke-linejoin="round" stroke-dasharray="2" d="M8.432,45.713V22.959c0-2.75,2.25-5,5-5H52.94
		"/>
</g>
<g>
	<g>
		<rect x="56.836" y="55.767" fill="#E7E7E7" width="48.291" height="26.333"/>
		<path fill="#A6A8AB" d="M80.982,62.775c3.398-0.004,6.158,2.758,6.158,6.158c-0.002,3.401-2.76,6.158-6.158,6.158
			c-3.4,0-6.159-2.757-6.16-6.158C74.822,65.533,77.579,62.771,80.982,62.775z"/>
		<circle fill="#A6A8AB" cx="69.389" cy="68.934" r="2.254"/>
		<circle fill="#A6A8AB" cx="92.874" cy="68.934" r="2.254"/>
	</g>
	<polyline fill="none" stroke="#231F20" stroke-linejoin="round" points="58.383,53.606 107.016,53.606 107.016,80.076 	"/>
	<polyline fill="none" stroke="#231F20" stroke-linejoin="round" points="61.715,50.35 110.348,50.35 110.348,76.818 	"/>
</g>
<polygon fill="#E7E7E7" points="78.751,64.986 78.751,72.88 85.369,69.127 "/>
</svg>
